<?xml version="1.0" encoding="utf-8"?>
<!-- Generator: Adobe Illustrator 16.0.0, SVG Export Plug-In . SVG Version: 6.00 Build 0)  -->
<!DOCTYPE svg PUBLIC "-//W3C//DTD SVG 1.1//EN" "http://www.w3.org/Graphics/SVG/1.1/DTD/svg11.dtd">
<svg version="1.1" id="Camada_1" xmlns="http://www.w3.org/2000/svg" xmlns:xlink="http://www.w3.org/1999/xlink" x="0px" y="0px"
	 width="512px" height="512px" viewBox="0 0 512 512" enable-background="new 0 0 512 512" xml:space="preserve">
<g>
	<path fill="#4C7215" d="M262.006,498.006c-130.137,0-236.003-105.866-236.003-236c0-130.137,105.866-236.003,236.003-236.003
		c130.135,0,236,105.866,236,236.003C498.006,392.14,392.141,498.006,262.006,498.006z M262.006,54.322
		c-114.518,0-207.685,93.167-207.685,207.684c0,114.514,93.167,207.682,207.685,207.682c114.513,0,207.681-93.168,207.681-207.682
		C469.687,147.489,376.519,54.322,262.006,54.322z"/>
</g>
<path fill="#8CC84B" d="M207.071,318.768c-6.356,3.978-15.936,10.418-23.346,17.422c-12.165,11.488-14.712,27.425-8.294,31.148
	c5.938,3.439,19.796-0.654,29.715-11.471c10.41-11.359,14.702-25.76,10.27-42.105c-0.521,0.312-1.032,0.621-1.533,0.912l0.01,0.021
	l-0.672,0.381C210.631,316.623,208.515,317.896,207.071,318.768z M385.722,313.611c-3.603,7.826-3.781,10.344-2.688,11.127
	c5.228-1.877,13.87-6.4,13.939-18.523c0.011-1.816-0.392-3.764-1.032-5.799C390.355,305.361,387.135,310.541,385.722,313.611z
	 M441.789,289.949c-13.959-1.627-24.851,0.33-33.305,3.854c1.564,4.074,2.769,8.318,2.938,12.592
	c0.393,9.383-6.065,16.328-12.797,21.285c-3.932,2.889-8.112,4.816-11.622,5.98c-2.81,1.184-6.538,2.406-9.188,1.867
	c-5.837-1.187-8.945-6.373-4.974-17.813c2.146-6.188,8.333-15.612,18.32-23.731c-2.274-4.687-4.813-9.461-6.105-13.848
	c-2.548-8.65-3.319-13.878-3.319-13.878s-8.231,17.068-18.854,32.593c-0.612,0.901-1.226,1.787-1.836,2.668
	c2.086,4.85,3.729,9.977,3.95,15.145c0.393,9.383-3.671,16.477-10.409,21.424c-3.649,2.689-7.541,4.547-10.882,5.73
	c-2.137,0.934-6.479,2.467-12.655,2.879c-3.379,0.23-6.629,0.021-8.443-1.354c-2.497-1.887-2.798-4.215-1.505-7.396
	c1.094-2.699,9.276-12.041,16.137-20.219c1.896-2.258,3.7-4.566,5.314-6.703l-0.039-0.092c0,0,1.243-1.604,3.259-4.404
	c-2.507-5.398-5.686-11.021-7.181-16.115c-2.548-8.648-3.319-13.879-3.319-13.879s-8.345,21.395-17.039,38.475
	c-6.729,13.227-11.222,21.242-13.247,24.754l-0.021,0.144c0,0-0.302,0.512-0.822,1.313l-0.391,0.652l-0.012-0.063
	c-2.257,3.334-7.32,9.864-12.354,9.864c-13.819,0-8.745-28.067-8.745-28.067s-4.041,10.396-8.594,19.317
	c-3.71,7.273-7.091,13.438-14.481,13.438c-2.126,0-5.495-0.061-8.294-2.721c-6.348-6.031-11.201-21.347-10.25-33.205
	c0.813-10.086,2.367-17.07,4.493-22.898c-3.791,2.066-8.173,4.516-12.636,7.135l-6.86,4.043l0.222,0.402
	c5.676,10.979,7.189,35.031-5.186,53.494c-12.375,18.475-35.411,29.713-57.854,23.473c-7.24-2.018-18.183-16.998-8.745-37.881
	c8.323-18.414,41.589-35.824,50.354-40.17l2.407-1.324c-17.479-15.293-61.124-35.924-67.242-67.615
	c-1.726-8.921,2.457-30.255,28.65-54.779c22.033-20.622,52.682-36.417,80.992-46.482c47.564-16.908,97.819-6.934,105.552,23.391
	c7.602,29.824-18.271,65.498-51.406,78.322c-29.585,11.449-54.045,9.633-64.094,6.333c-11.423-3.753-18.122-11.29-19.757-15.544
	c-0.643-1.666-1.746-4.465,0-5.429c1.072-0.592,1.504-0.451,4.372,2.72c2.729,3.01,13.698,11.089,34.539,8.75
	c54.688-6.131,87.629-48.649,77.221-71.528c-7.29-16.016-49.44-23.241-102.103,3.02c-64.283,32.051-67.771,58.473-68.324,68.508
	c-1.504,27.604,34.047,42.125,53.281,62.655l0.742,0.814c3.601-1.988,7.401-4.084,11.132-6.132
	c9.698-5.329,18.845-10.327,23.106-12.655c6.77-9.843,20.508-20.701,30.427-20.701c15.854,0,10.41,22.789,10.41,22.789
	s0.32-1.043,0.752-1.053c0.451-0.011,2.195-3,7.091-1.216c5.034,1.847,3.89,5.379,3.921,5.74c0.061,0.7-5.947,20.963-8.444,33.957
	c-1.192,6.2-0.501,10.719-0.148,10.719c0.491,0,1.494-1.575,2.427-3.271l-0.021-0.051c0,0,0.701-1.285,1.876-3.593l0.229-0.481
	l0.01,0.021c1.386-2.709,3.329-6.692,5.575-11.631c4.402-9.703,21.2-47.164,22.624-51.31c1.424-4.143,2.166-8.428,2.869-10.265
	c0.692-1.836,6.629-3.221,13.568-3.171c6.938,0.051,7.643,3.011,7.69,3.623c0.051,0.612-3.3,8.831-4.071,14.641
	c-0.763,5.812-0.028,8.709,0.604,13.586c0.411,3.189,2.406,7.234,4.764,11.82c7.183-11.74,19.815-34.197,21.029-40.49
	c0.832-4.305,2.166-8.429,2.868-10.266s6.63-3.221,13.568-3.171c6.938,0.05,7.642,3.011,7.691,3.623
	c0.05,0.612-3.312,8.831-4.071,14.641c-0.764,5.8-0.028,8.709,0.602,13.587c0.543,4.174,3.771,9.782,6.972,16.166
	c8.732-4.308,19.014-7.195,31.048-7.257c4.984-0.028,10.771,0.474,13.761,1.404v-96.001c0-6.773-3.472-13.015-9.337-16.396
	L283.559,76.54c-5.855-3.382-13.025-3.382-18.883,0l-156.177,90.473c-5.856,3.382-8.985,9.634-8.985,16.397v181.107
	c0,6.762,3.148,13.017,8.996,16.396l156.427,90.543c5.855,3.393,12.957,3.393,18.813,0l156.496-90.543
	c5.856-3.393,9.269-9.635,9.269-16.396v-73.192C447.528,290.74,444.618,290.279,441.789,289.949L441.789,289.949z M273.31,280.465
	c-3.358,3.764-9.085,13.467-11.764,21.586c-5.325,16.125-3.021,32.512,0.752,33.496c4.401,1.154,11.624-20.4,15.082-28.83
	c2.167-5.279,10.591-28.709,8.745-31.84C284.684,272.428,278.715,274.404,273.31,280.465L273.31,280.465z M334.235,334.814
	c0,0-1.062,1.004-0.602,1.285c0.622,0.371,1.966-0.111,3.43-0.875c4.142-2.607,13.438-9.111,13.458-18.732
	c0-0.281-0.011-0.553-0.03-0.844c-2.155,2.83-4.142,5.348-5.854,7.485C341.704,326.775,334.235,334.814,334.235,334.814
	L334.235,334.814z"/>
<g>
	<path fill="#6BA027" d="M256,492C125.866,492,20,386.134,20,256S125.866,20,256,20c130.135,0,236,105.866,236,236
		S386.135,492,256,492z M256,48.319C141.486,48.319,48.319,141.486,48.319,256c0,114.514,93.167,207.682,207.682,207.682
		c114.513,0,207.681-93.168,207.681-207.682C463.681,141.486,370.513,48.319,256,48.319z"/>
</g>
<g id="Camada_2">
</g>
</svg>
