<?xml version="1.0" encoding="utf-8"?>
<!-- Generator: Adobe Illustrator 16.0.0, SVG Export Plug-In . SVG Version: 6.00 Build 0)  -->
<!DOCTYPE svg PUBLIC "-//W3C//DTD SVG 1.1//EN" "http://www.w3.org/Graphics/SVG/1.1/DTD/svg11.dtd">
<svg version="1.1" xmlns="http://www.w3.org/2000/svg" xmlns:xlink="http://www.w3.org/1999/xlink" x="0px" y="0px" width="512px"
	 height="512px" viewBox="0 0 512 512" enable-background="new 0 0 512 512" xml:space="preserve">
<g id="Layer_1">
	<g>
		<path d="M256,492C125.866,492,20,386.134,20,256C20,125.866,125.866,20,256,20c130.135,0,236,105.866,236,236
			C492,386.134,386.135,492,256,492z M256,48.319C141.486,48.319,48.319,141.486,48.319,256S141.486,463.682,256,463.682
			c114.513,0,207.681-93.168,207.681-207.682S370.513,48.319,256,48.319z"/>
	</g>
	<path fill-rule="evenodd" clip-rule="evenodd" fill="#563E7C" d="M1207.905-176.238c23.035,0,46.068,0,69.104,0
		c4.045,0,5.018,0.994,5.02,5.11c0,4.783,0.012,9.567-0.004,14.351c-0.01,3.177-1.217,4.381-4.416,4.382
		c-20.09,0.007-40.182,0.078-60.271-0.073c-3.143-0.024-5.42,0.741-7.441,3.142c-1.994,2.367-2.322,2.375-4.27,0.034
		c-2.072-2.493-4.453-3.195-7.648-3.172c-19.796,0.146-39.592,0.074-59.389,0.072c-3.924,0-4.941-1.024-4.944-4.964
		c-0.002-4.71-0.004-9.419,0.001-14.129c0.004-3.645,1.098-4.75,4.716-4.751C1161.541-176.239,1184.723-176.238,1207.905-176.238z"
		/>
	<path fill-rule="evenodd" clip-rule="evenodd" fill="#563E7C" d="M1258.377-86.147c-39.951,0-79.902,0-119.853,0
		c-3.96,0-4.88-0.938-4.882-4.96c0-1.324-0.005-2.648,0.002-3.972c0.015-3.195,1.152-4.305,4.42-4.317c0.221-0.001,0.441,0,0.662,0
		c79.828,0,159.654,0,239.482,0c4.533,0,5.391,0.858,5.391,5.401c0,1.398,0.043,2.798-0.014,4.193
		c-0.092,2.237-1.373,3.517-3.592,3.646c-0.66,0.038-1.324,0.009-1.986,0.009C1338.131-86.147,1298.254-86.147,1258.377-86.147z
		 M1353.791-87.915c8.391,0,16.781-0.034,25.17,0.025c2.066,0.017,3.01-0.743,2.889-2.85c-0.086-1.467-0.051-2.942-0.01-4.414
		c0.051-1.793-0.82-2.49-2.559-2.488c-17.074,0.02-34.148,0.023-51.223-0.014c-1.209-0.003-1.49,0.41-1.449,1.522
		c0.074,2.058,0.131,4.129-0.014,6.18c-0.115,1.621,0.33,2.103,2.027,2.083C1337.012-87.968,1345.403-87.915,1353.791-87.915z"/>
	<path fill-rule="evenodd" clip-rule="evenodd" fill="#FEFEFE" d="M1211.328-112.694c-25.293,0-50.585,0-75.878,0
		c-0.013-7.347-0.003-14.693-0.058-22.04c-0.014-1.86,0.742-2.658,2.62-2.656c23.585,0.022,47.169,0.022,70.755,0
		c1.879-0.002,2.631,0.795,2.617,2.656C1211.332-127.389,1211.342-120.041,1211.328-112.694z M1173.17-121.919
		c8.169,0,16.338-0.083,24.504,0.053c2.266,0.038,2.242-1.082,2.246-2.705c0.002-1.631,0.004-2.712-2.252-2.698
		c-16.188,0.097-32.377,0.097-48.564,0c-2.264-0.014-2.242,1.082-2.245,2.705c-0.003,1.63-0.007,2.737,2.251,2.698
		C1157.128-122.002,1165.151-121.919,1173.17-121.919z"/>
	<path fill-rule="evenodd" clip-rule="evenodd" fill="#563E7D" d="M1053.044-86.147c-6.546,0-13.093-0.048-19.64,0.033
		c-1.642,0.021-2.291-0.3-2.264-2.143c0.113-7.428,0.09-14.858,0.014-22.287c-0.018-1.58,0.309-2.151,2.037-2.143
		c13.387,0.075,26.775,0.062,40.162,0.013c1.469-0.005,2.051,0.296,2.033,1.917c-0.084,7.576-0.084,15.153,0,22.728
		c0.018,1.633-0.582,1.925-2.041,1.91C1066.579-86.185,1059.811-86.147,1053.044-86.147z"/>
	<path fill-rule="evenodd" clip-rule="evenodd" fill="#563E7C" d="M1009.357-112.645c6.319,0,12.64,0.041,18.959-0.031
		c1.478-0.017,2.043,0.312,2.025,1.923c-0.082,7.569-0.081,15.139,0,22.708c0.017,1.604-0.537,1.933-2.021,1.927
		c-12.639-0.052-25.279-0.022-37.919-0.035c-3.015-0.003-4.245-1.26-4.255-4.312c-0.016-5.88-0.01-11.758-0.002-17.638
		c0.006-3.346,1.173-4.534,4.473-4.539C996.864-112.652,1003.11-112.645,1009.357-112.645z"/>
	<path fill-rule="evenodd" clip-rule="evenodd" fill="#563E7C" d="M1097.199-112.645c6.173,0,12.346-0.005,18.519,0.001
		c3.515,0.004,4.669,1.126,4.675,4.56c0.008,5.878,0.014,11.758-0.003,17.636c-0.009,3.055-1.232,4.292-4.271,4.295
		c-12.641,0.013-25.28-0.018-37.92,0.036c-1.508,0.008-2.019-0.363-2.002-1.945c0.08-7.568,0.082-15.139-0.002-22.708
		c-0.018-1.635,0.592-1.919,2.043-1.903C1084.559-112.606,1090.879-112.645,1097.199-112.645z"/>
	<path fill-rule="evenodd" clip-rule="evenodd" fill="#563E7C" d="M1134.065-220.4c47.539,0,95.078,0,142.617,0
		c4.488,0,5.346,0.873,5.346,5.447c0,6.99,0.008,13.982-0.004,20.973c-0.004,3.323-1.18,4.491-4.529,4.491
		c-95.592,0.003-191.186,0.003-286.777,0c-3.439,0-4.57-1.162-4.572-4.672c-0.006-7.212-0.007-14.423,0-21.635
		c0.004-3.465,1.148-4.602,4.643-4.602C1038.546-220.401,1086.306-220.4,1134.065-220.4z M1134.085-191.253
		c47.619,0,95.237,0.001,142.858-0.001c2.961,0,3.313-0.347,3.316-3.259c0.004-6.845,0.002-13.689,0-20.534
		c0-3.354-0.234-3.585-3.65-3.585c-27.379,0-54.76,0-82.137,0c-67.713,0-135.425,0-203.137,0c-3.104,0-3.425,0.317-3.426,3.37
		c-0.004,6.771-0.002,13.542-0.001,20.313c0.001,3.504,0.196,3.697,3.761,3.697C1039.142-191.253,1086.614-191.253,1134.085-191.253
		z"/>
	<path fill-rule="evenodd" clip-rule="evenodd" fill="#563E7C" d="M1053.268-176.238c20.754,0,41.507-0.001,62.26,0.001
		c3.795,0,4.865,1.061,4.866,4.821c0.003,13.541,0.003,27.083,0,40.623c-0.001,3.889-1.034,4.898-5.009,4.898
		c-17.662,0.002-35.325,0.06-52.986-0.059c-2.785-0.019-4.814,0.657-6.715,2.754c-2.738,3.022-2.193,3.128-5.039-0.022
		c-1.906-2.109-3.953-2.747-6.724-2.729c-17.588,0.113-35.177,0.058-52.766,0.056c-3.974,0-5.011-1.013-5.012-4.896
		c-0.003-13.542-0.003-27.083,0-40.624c0.001-3.762,1.071-4.823,4.864-4.823C1011.762-176.239,1032.515-176.238,1053.268-176.238z
		 M1053.42-174.472c-20.678,0-41.355,0-62.033,0.001c-3.201,0-3.477,0.282-3.478,3.539c-0.001,13.245-0.001,26.49,0,39.736
		c0.001,3.258,0.272,3.536,3.478,3.536c17.66,0.001,35.321,0.075,52.98-0.069c3.129-0.025,5.599,0.615,7.435,3.168
		c0.962,1.337,1.868,1.443,2.853,0.022c1.866-2.696,4.465-3.216,7.652-3.189c17.586,0.144,35.173,0.069,52.76,0.068
		c3.276,0,3.561-0.275,3.561-3.457c0.002-13.319,0.002-26.639,0-39.958c0-3.072-0.322-3.396-3.396-3.396
		C1094.628-174.473,1074.024-174.472,1053.42-174.472z"/>
	<path fill-rule="evenodd" clip-rule="evenodd" fill="#563E7C" d="M1211.328-112.694c0.014-7.347,0.004-14.694,0.057-22.04
		c0.014-1.861-0.738-2.658-2.617-2.656c-23.586,0.022-47.17,0.022-70.755,0c-1.878-0.002-2.634,0.796-2.62,2.656
		c0.055,7.347,0.045,14.693,0.058,22.04c-1.253,0.229-1.854-0.075-1.839-1.564c0.072-6.99,0.01-13.98,0.045-20.971
		c0.012-2.596,1.353-3.902,3.998-3.903c23.84-0.015,47.681-0.016,71.521,0.001c2.623,0.002,3.934,1.329,3.947,3.953
		c0.033,6.107,0.115,12.217-0.045,18.32c-0.055,2.128,0.678,2.487,2.6,2.485c54.967-0.048,109.932-0.045,164.898,0.009
		c0.971,0,2.836-0.924,2.869,0.807c0.033,1.816-1.859,0.862-2.807,0.863c-55.555,0.056-111.109,0.05-166.664,0.048
		C1213.092-112.646,1212.209-112.679,1211.328-112.694z"/>
	<path fill-rule="evenodd" clip-rule="evenodd" fill="#553E7C" d="M1339.424-220.4c13.168,0,26.336-0.002,39.504,0.001
		c3.512,0.002,4.666,1.131,4.67,4.572c0.008,7.283,0.01,14.566-0.002,21.849c-0.004,3.321-1.18,4.489-4.529,4.489
		c-26.41,0.004-52.82,0.004-79.23,0c-3.359,0-4.553-1.167-4.557-4.46c-0.012-7.357-0.012-14.713,0-22.07
		c0.006-3.169,1.223-4.376,4.418-4.378C1312.94-220.406,1326.182-220.4,1339.424-220.4z M1339.44-191.252
		c13.1,0,26.199,0.003,39.299-0.003c2.672,0,3.088-0.41,3.092-3.039c0.01-7.139,0.01-14.278-0.002-21.417
		c-0.004-2.47-0.461-2.918-2.984-2.919c-26.273-0.006-52.547-0.006-78.82,0c-2.512,0-2.975,0.457-2.977,2.928
		c-0.012,7.065-0.008,14.13-0.004,21.195c0.002,2.902,0.361,3.253,3.318,3.253C1313.387-191.251,1326.414-191.252,1339.44-191.252z"
		/>
	<path fill-rule="evenodd" clip-rule="evenodd" fill="#563E7C" d="M1339.658-121.919c-10.221,0-20.445-0.058-30.666,0.046
		c-2.15,0.022-2.76-0.644-2.746-2.751c0.016-2.011,0.568-2.645,2.633-2.637c20.52,0.07,41.039,0.07,61.557,0
		c2.063-0.008,2.621,0.622,2.635,2.635c0.014,2.106-0.594,2.775-2.744,2.753C1360.104-121.977,1349.881-121.919,1339.658-121.919z"
		/>
	<path fill-rule="evenodd" clip-rule="evenodd" fill="#563E7C" d="M1257.405-121.919c-8.09,0-16.178-0.066-24.266,0.045
		c-2.107,0.029-2.424-0.874-2.379-2.645c0.041-1.633,0.035-2.756,2.275-2.744c16.322,0.082,32.646,0.083,48.969,0
		c2.254-0.012,2.225,1.127,2.27,2.751c0.051,1.779-0.287,2.665-2.385,2.637C1273.727-121.983,1265.567-121.919,1257.405-121.919z"/>
	<path fill-rule="evenodd" clip-rule="evenodd" fill="#543C7A" d="M1341.071-156.854c-2.057,0-4.115-0.045-6.17,0.015
		c-1.729,0.05-2.607-0.586-2.551-2.435c0.076-2.422,0.039-4.848,0.012-7.271c-0.016-1.458,0.652-2.25,2.113-2.166
		c1.064,0.062,1.709-0.345,2.396-1.153c2.271-2.666,6.418-2.636,8.67,0.046c0.625,0.744,1.197,1.178,2.193,1.099
		c1.715-0.135,2.35,0.791,2.318,2.424c-0.049,2.35-0.047,4.702-0.002,7.051c0.033,1.665-0.686,2.436-2.371,2.4
		C1345.479-156.888,1343.274-156.854,1341.071-156.854z M1341.11-166.463c-2.023,0.057-3.543,1.688-3.486,3.742
		c0.051,1.883,1.93,3.655,3.75,3.54c1.768-0.112,3.383-1.88,3.367-3.687C1344.727-164.894,1343.084-166.519,1341.11-166.463z"/>
	<path fill-rule="evenodd" clip-rule="evenodd" fill="#543D7A" d="M1317.586-164.728c-2.117,0.003-2.664,0.876-2.516,2.674
		c0.141,1.678-0.055,3.382,0.053,5.065c0.115,1.857-1.146,1.53-2.191,1.493c-0.982-0.035-2.396,0.508-2.26-1.406
		c0.049-0.658-0.08-1.335,0.021-1.98c0.313-1.974-0.496-2.547-2.43-2.446c-1.463,0.076-2.234,0.369-2.004,1.971
		c0.061,0.432,0.01,0.88,0.01,1.321c-0.006,2.376-1.498,3.345-3.768,2.521c-0.805-0.292-0.635-0.895-0.645-1.438
		c-0.027-1.689-0.119-3.387,0.018-5.065c0.143-1.767-0.342-2.701-2.48-2.241c0.406-1.278,1.365-1.858,2.084-2.592
		c1.953-1.993,3.975-3.92,5.938-5.903c0.637-0.643,1.123-1.057,1.965-0.193C1312.08-170.175,1314.846-167.464,1317.586-164.728z"/>
	<path fill-rule="evenodd" clip-rule="evenodd" fill="#533B78" d="M1376.942-168.726c-1.611,0-3.225-0.037-4.834,0.013
		c-1.117,0.035-1.83-0.176-1.783-1.538c0.039-1.153,0.553-1.54,1.631-1.533c3.369,0.022,6.74,0.023,10.109,0.001
		c1.121-0.007,1.539,0.491,1.559,1.6c0.021,1.211-0.564,1.498-1.627,1.469C1380.313-168.758,1378.627-168.726,1376.942-168.726z"/>
	<path fill-rule="evenodd" clip-rule="evenodd" fill="#533B78" d="M1376.94-164.309c-1.611,0-3.223-0.011-4.834,0.005
		c-0.934,0.009-1.762,0.014-1.775-1.311c-0.012-1.181,0.359-1.77,1.627-1.756c3.369,0.038,6.74,0.028,10.109,0.006
		c1.127-0.007,1.537,0.496,1.559,1.602c0.021,1.215-0.57,1.494-1.629,1.466C1380.311-164.342,1378.625-164.309,1376.94-164.309z"/>
	<path fill-rule="evenodd" clip-rule="evenodd" fill="#533B78" d="M1376.905-159.894c-1.686,0-3.371-0.024-5.057,0.009
		c-0.961,0.019-1.52-0.252-1.514-1.35c0.004-1.027,0.234-1.715,1.438-1.71c3.443,0.015,6.887,0.017,10.33-0.003
		c1.146-0.007,1.502,0.551,1.521,1.636c0.023,1.247-0.641,1.452-1.664,1.43C1380.276-159.919,1378.588-159.893,1376.905-159.894z"/>
	<path fill-rule="evenodd" clip-rule="evenodd" fill="#533B78" d="M1376.957-155.478c-1.686,0-3.371-0.019-5.055,0.008
		c-0.922,0.015-1.572-0.159-1.566-1.295c0.006-0.99,0.148-1.763,1.383-1.76c3.516,0.007,7.031,0.004,10.549,0.003
		c1.066,0,1.336,0.624,1.348,1.572c0.014,0.991-0.311,1.505-1.383,1.481C1380.475-155.508,1378.715-155.479,1376.957-155.478z"/>
	<path fill-rule="evenodd" clip-rule="evenodd" fill="#503A75" d="M1365.938-170.197c-0.111-1.115,0.404-1.593,1.521-1.595
		c1.141-0.001,1.549,0.539,1.533,1.625c-0.018,1.181-0.656,1.459-1.697,1.459C1366.231-168.708,1365.834-169.192,1365.938-170.197z"
		/>
	<path fill-rule="evenodd" clip-rule="evenodd" fill="#503A75" d="M1367.387-164.316c-1.002,0.103-1.475-0.308-1.477-1.365
		c0-1.038,0.264-1.683,1.455-1.692c1.08-0.009,1.635,0.383,1.629,1.527C1368.989-164.734,1368.506-164.213,1367.387-164.316z"/>
	<path fill-rule="evenodd" clip-rule="evenodd" fill="#503A75" d="M1365.946-161.335c-0.117-1.241,0.49-1.625,1.568-1.622
		c1.176,0.004,1.5,0.625,1.475,1.677c-0.027,1.21-0.742,1.406-1.748,1.401C1366.151-159.885,1365.819-160.436,1365.946-161.335z"/>
	<path fill-rule="evenodd" clip-rule="evenodd" fill="#503A75" d="M1365.936-157.031c-0.102-1.169,0.539-1.516,1.604-1.509
		c1.189,0.008,1.475,0.667,1.447,1.701c-0.031,1.224-0.783,1.372-1.771,1.375C1366.088-155.458,1365.858-156.092,1365.936-157.031z"
		/>
	<path fill-rule="evenodd" clip-rule="evenodd" fill="#FEFEFE" d="M1353.791-87.915c-8.389,0-16.779-0.053-25.168,0.045
		c-1.697,0.02-2.143-0.462-2.027-2.083c0.145-2.051,0.088-4.122,0.014-6.18c-0.041-1.112,0.24-1.525,1.449-1.522
		c17.074,0.037,34.148,0.033,51.223,0.014c1.738-0.002,2.609,0.695,2.559,2.488c-0.041,1.472-0.076,2.947,0.01,4.414
		c0.121,2.106-0.822,2.866-2.889,2.85C1370.573-87.949,1362.182-87.915,1353.791-87.915z"/>
	<path fill-rule="evenodd" clip-rule="evenodd" fill="#563E7D" d="M1173.17-121.919c-8.02,0-16.042-0.083-24.061,0.053
		c-2.258,0.039-2.254-1.068-2.251-2.698c0.003-1.623-0.019-2.719,2.245-2.705c16.188,0.097,32.377,0.097,48.564,0
		c2.256-0.014,2.254,1.067,2.252,2.698c-0.004,1.623,0.02,2.743-2.246,2.705C1189.508-122.002,1181.339-121.919,1173.17-121.919z"/>
	<path fill-rule="evenodd" clip-rule="evenodd" fill="#FEFEFE" d="M1134.085-191.253c-47.472,0-94.943,0-142.415,0
		c-3.564,0-3.76-0.192-3.761-3.697c-0.001-6.771-0.003-13.542,0.001-20.313c0.001-3.053,0.322-3.37,3.426-3.37
		c67.712-0.001,135.424,0,203.137,0c27.377,0,54.758,0,82.137,0c3.416,0,3.65,0.231,3.65,3.585c0.002,6.845,0.004,13.689,0,20.534
		c-0.004,2.912-0.355,3.259-3.316,3.259C1229.323-191.252,1181.704-191.253,1134.085-191.253z"/>
	<path fill-rule="evenodd" clip-rule="evenodd" fill="#FEFEFE" d="M1339.44-191.252c-13.025,0-26.053,0.001-39.078-0.001
		c-2.957,0-3.316-0.351-3.318-3.253c-0.004-7.065-0.008-14.13,0.004-21.195c0.002-2.471,0.465-2.927,2.977-2.928
		c26.273-0.006,52.547-0.006,78.82,0c2.523,0,2.98,0.449,2.984,2.919c0.012,7.138,0.012,14.277,0.002,21.417
		c-0.004,2.629-0.42,3.039-3.092,3.039C1365.639-191.25,1352.539-191.252,1339.44-191.252z M1339.885-207.151
		c-9.715,0-19.43,0.071-29.141-0.052c-2.256-0.029-2.258,1.064-2.254,2.698c0.006,1.62-0.021,2.715,2.244,2.704
		c19.279-0.089,38.559-0.089,57.838,0c2.252,0.011,2.26-1.061,2.254-2.695c-0.006-1.621,0.023-2.737-2.244-2.708
		C1359.018-207.079,1349.449-207.151,1339.885-207.151z"/>
	<path fill-rule="evenodd" clip-rule="evenodd" fill="#563E7D" d="M1339.885-207.151c9.564,0,19.133,0.072,28.697-0.052
		c2.268-0.03,2.238,1.087,2.244,2.708c0.006,1.634-0.002,2.706-2.254,2.695c-19.279-0.089-38.559-0.089-57.838,0
		c-2.266,0.011-2.238-1.084-2.244-2.704c-0.004-1.634-0.002-2.727,2.254-2.698C1320.455-207.081,1330.17-207.151,1339.885-207.151z"
		/>
	<path fill-rule="evenodd" clip-rule="evenodd" fill="#533B78" d="M1342.606-162.965c-0.057,1.072-0.584,1.585-1.387,1.579
		c-0.926-0.007-1.445-0.6-1.4-1.57c0.041-0.859,0.506-1.357,1.371-1.36C1342.194-164.32,1342.576-163.693,1342.606-162.965z"/>
	<path fill-rule="evenodd" clip-rule="evenodd" fill="#563E7C" d="M176.287,217.753c36.083,0,72.162-0.002,108.245,0.001
		c6.337,0,7.86,1.557,7.863,8.003c0,7.492,0.019,14.988-0.006,22.48c-0.016,4.975-1.906,6.862-6.918,6.862
		c-31.469,0.012-62.941,0.122-94.41-0.113c-4.923-0.038-8.49,1.16-11.656,4.92c-3.124,3.708-3.638,3.72-6.688,0.055
		c-3.246-3.907-6.976-5.005-11.981-4.968c-31.008,0.226-62.017,0.116-93.027,0.113c-6.146,0-7.74-1.606-7.745-7.777
		c-0.003-7.378-0.006-14.755,0.001-22.132c0.006-5.709,1.72-7.442,7.387-7.443C103.662,217.751,139.975,217.753,176.287,217.753z"/>
	<path fill-rule="evenodd" clip-rule="evenodd" fill="#563E7C" d="M255.348,358.873c-62.581,0-125.161,0-187.74,0
		c-6.203,0-7.644-1.469-7.647-7.771c0-2.074-0.007-4.148,0.003-6.22c0.023-5.005,1.805-6.743,6.924-6.764c0.346,0,0.691,0,1.037,0
		c125.044,0,250.085,0,375.13,0c7.101,0,8.443,1.346,8.443,8.462c0,2.19,0.067,4.381-0.021,6.568
		c-0.144,3.503-2.15,5.507-5.626,5.709c-1.034,0.062-2.074,0.016-3.111,0.016C380.277,358.873,317.813,358.873,255.348,358.873z
		 M404.807,356.104c13.143,0,26.286-0.056,39.427,0.039c3.236,0.024,4.714-1.165,4.524-4.464c-0.135-2.297-0.079-4.61-0.016-6.914
		c0.08-2.809-1.284-3.9-4.008-3.897c-26.745,0.03-53.49,0.037-80.235-0.021c-1.895-0.006-2.335,0.643-2.271,2.384
		c0.116,3.225,0.205,6.467-0.021,9.68c-0.181,2.539,0.518,3.295,3.176,3.265C378.524,356.021,391.666,356.104,404.807,356.104z"/>
	<path fill-rule="evenodd" clip-rule="evenodd" fill="#FEFEFE" d="M181.65,317.289c-39.62,0-79.237,0-118.857,0
		c-0.02-11.51-0.004-23.016-0.09-34.525c-0.021-2.912,1.163-4.164,4.104-4.161c36.944,0.037,73.886,0.037,110.832,0
		c2.943-0.003,4.121,1.247,4.1,4.161C181.656,294.271,181.671,305.779,181.65,317.289z M121.878,302.84
		c12.796,0,25.592-0.132,38.383,0.082c3.549,0.059,3.512-1.694,3.519-4.237c0.003-2.555,0.006-4.249-3.528-4.228
		c-25.356,0.152-50.716,0.152-76.072,0c-3.546-0.021-3.512,1.694-3.517,4.237c-0.005,2.555-0.011,4.289,3.526,4.228
		C96.75,302.708,109.316,302.84,121.878,302.84z"/>
	<path fill-rule="evenodd" clip-rule="evenodd" fill="#563E7C" d="M248.703,148.575c74.466,0-39.148,0,35.317,0.001
		c7.031,0,8.374,1.368,8.374,8.533c0,10.95,0.012,21.901-0.006,32.854c-0.007,5.204-1.849,7.034-7.095,7.034
		c-149.737,0.004-70.642,0.004-220.379,0c-5.388,0-7.159-1.82-7.162-7.318c-0.009-11.297-0.011-22.594,0-33.889
		c0.006-5.428,1.799-7.209,7.272-7.209C139.835,148.575,173.893,148.576,248.703,148.575z M60.655,194.233
		c74.592,0,149.182,0,223.776-0.003c4.638,0,5.188-0.544,5.195-5.106c0.006-10.72,0.003-21.443,0-32.164
		c0-5.254-0.367-5.617-5.719-5.617c-42.887,0-85.776,0-128.66,0c-106.067,0,16.703,0-89.362,0c-4.862,0-5.365,0.497-5.366,5.279
		c-0.006,10.605-0.003,21.212-0.002,31.819c0.002,5.489,0.308,5.792,5.891,5.792C140.768,194.233,66.408,194.233,60.655,194.233z"/>
	<path fill-rule="evenodd" clip-rule="evenodd" fill="#563E7C" d="M181.65,317.289c0.021-11.51,0.006-23.019,0.088-34.525
		c0.021-2.914-1.156-4.164-4.1-4.161c-36.945,0.037-73.888,0.037-110.832,0c-2.942-0.003-4.126,1.249-4.104,4.161
		c0.086,11.51,0.07,23.016,0.09,34.525c-1.962,0.358-2.905-0.119-2.88-2.45c0.113-10.95,0.015-21.899,0.07-32.85
		c0.019-4.065,2.119-6.112,6.263-6.115c37.343-0.023,74.688-0.024,112.033,0.003c4.109,0.003,6.162,2.08,6.183,6.192
		c0.052,9.566,0.18,19.137-0.07,28.697c-0.086,3.332,1.062,3.895,4.072,3.892c86.102-0.073,172.199-0.07,258.301,0.016
		c1.521,0,4.441-1.447,4.494,1.263c0.052,2.846-2.913,1.35-4.396,1.353c-87.022,0.086-174.044,0.076-261.066,0.073
		C184.413,317.362,183.03,317.313,181.65,317.289z"/>
	<path fill-rule="evenodd" clip-rule="evenodd" fill="#553E7C" d="M382.302,148.575c20.626,0,41.253-0.003,61.879,0.003
		c5.501,0.003,7.31,1.771,7.315,7.162c0.013,11.409,0.016,22.817-0.003,34.226c-0.006,5.201-1.848,7.03-7.095,7.03
		c-41.369,0.006-82.739,0.006-124.108,0c-5.262,0-7.132-1.828-7.138-6.986c-0.019-11.523-0.019-23.048,0-34.57
		c0.01-4.965,1.915-6.856,6.921-6.859C340.816,148.567,361.559,148.575,382.302,148.575z M382.326,194.233
		c20.52,0,41.039,0.005,61.559-0.006c4.185,0,4.837-0.643,4.843-4.761c0.015-11.182,0.015-22.364-0.003-33.546
		c-0.007-3.87-0.723-4.571-4.675-4.572c-41.155-0.009-82.311-0.009-123.466,0c-3.935,0.001-4.659,0.714-4.663,4.586
		c-0.018,11.067-0.012,22.133-0.006,33.201c0.003,4.546,0.566,5.096,5.198,5.096C341.517,194.235,361.923,194.233,382.326,194.233z"
		/>
	<path fill-rule="evenodd" clip-rule="evenodd" fill="#563E7C" d="M382.669,302.84c-16.011,0-32.026-0.092-48.036,0.07
		c-3.368,0.036-4.323-1.007-4.302-4.308c0.024-3.151,0.891-4.143,4.124-4.131c32.143,0.11,64.284,0.11,96.424,0
		c3.23-0.012,4.105,0.974,4.127,4.128c0.021,3.298-0.93,4.347-4.299,4.311C414.695,302.748,398.682,302.84,382.669,302.84z"/>
	<path fill-rule="evenodd" clip-rule="evenodd" fill="#563E7C" d="M253.824,302.84c-12.672,0-25.341-0.104-38.01,0.07
		c-3.301,0.046-3.796-1.371-3.726-4.143c0.064-2.558,0.055-4.316,3.564-4.299c25.568,0.129,51.138,0.129,76.706,0
		c3.531-0.018,3.485,1.766,3.556,4.308c0.079,2.787-0.45,4.177-3.736,4.131C279.392,302.738,266.61,302.84,253.824,302.84z"/>
	<path fill-rule="evenodd" clip-rule="evenodd" fill="#543C7A" d="M384.881,248.116c-3.222,0-6.446-0.07-9.665,0.021
		c-2.708,0.08-4.084-0.918-3.996-3.812c0.12-3.793,0.062-7.593,0.019-11.39c-0.024-2.285,1.022-3.526,3.311-3.393
		c1.667,0.095,2.677-0.542,3.754-1.808c3.559-4.176,10.054-4.128,13.581,0.074c0.979,1.166,1.875,1.845,3.436,1.722
		c2.687-0.212,3.681,1.239,3.632,3.797c-0.077,3.681-0.074,7.364-0.004,11.044c0.053,2.61-1.073,3.815-3.714,3.76
		C391.785,248.063,388.331,248.116,384.881,248.116z M384.942,233.063c-3.169,0.089-5.55,2.646-5.461,5.862
		c0.08,2.949,3.022,5.726,5.874,5.545c2.769-0.176,5.299-2.945,5.274-5.775C390.608,235.523,388.035,232.977,384.942,233.063z"/>
	<path fill-rule="evenodd" clip-rule="evenodd" fill="#543D7A" d="M348.094,235.783c-3.316,0.003-4.173,1.373-3.94,4.188
		c0.221,2.628-0.085,5.297,0.083,7.933c0.181,2.91-1.796,2.398-3.433,2.339c-1.539-0.054-3.754,0.795-3.54-2.203
		c0.076-1.031-0.125-2.091,0.034-3.101c0.489-3.093-0.777-3.99-3.807-3.833c-2.291,0.119-3.5,0.578-3.139,3.087
		c0.095,0.678,0.016,1.38,0.016,2.069c-0.01,3.722-2.347,5.239-5.902,3.948c-1.26-0.456-0.994-1.401-1.009-2.251
		c-0.043-2.646-0.188-5.307,0.027-7.936c0.223-2.766-0.535-4.231-3.886-3.509c0.637-2.004,2.139-2.913,3.265-4.062
		c3.06-3.122,6.226-6.14,9.301-9.247c0.997-1.006,1.759-1.655,3.077-0.303C339.47,227.25,343.802,231.497,348.094,235.783z"/>
	<path fill-rule="evenodd" clip-rule="evenodd" fill="#533B78" d="M441.07,229.521c-2.523,0-5.051-0.058-7.571,0.02
		c-1.75,0.054-2.867-0.275-2.794-2.409c0.062-1.807,0.866-2.412,2.555-2.402c5.277,0.037,10.559,0.037,15.836,0.003
		c1.756-0.012,2.41,0.768,2.441,2.505c0.033,1.897-0.885,2.345-2.549,2.301C446.351,229.469,443.71,229.519,441.07,229.521z"/>
	<path fill-rule="evenodd" clip-rule="evenodd" fill="#533B78" d="M441.067,236.438c-2.523,0-5.048-0.018-7.572,0.008
		c-1.462,0.014-2.759,0.023-2.78-2.055c-0.019-1.848,0.563-2.771,2.548-2.75c5.277,0.058,10.559,0.044,15.836,0.009
		c1.766-0.012,2.407,0.777,2.441,2.509c0.033,1.903-0.894,2.341-2.552,2.298C446.348,236.386,443.707,236.438,441.067,236.438z"/>
	<path fill-rule="evenodd" clip-rule="evenodd" fill="#533B78" d="M441.012,243.355c-2.641-0.001-5.28-0.038-7.921,0.012
		c-1.505,0.031-2.38-0.395-2.371-2.114c0.006-1.609,0.367-2.686,2.252-2.678c5.394,0.023,10.787,0.026,16.181-0.005
		c1.796-0.012,2.353,0.863,2.384,2.561c0.036,1.953-1.004,2.274-2.606,2.239C446.292,243.314,443.649,243.355,441.012,243.355z"/>
	<path fill-rule="evenodd" clip-rule="evenodd" fill="#533B78" d="M441.094,250.271c-2.64,0.001-5.28-0.029-7.917,0.014
		c-1.444,0.023-2.463-0.25-2.454-2.028c0.01-1.551,0.232-2.763,2.166-2.758c5.507,0.011,11.014,0.006,16.524,0.004
		c1.67,0,2.092,0.976,2.11,2.463c0.021,1.553-0.486,2.359-2.166,2.321C446.605,250.224,443.848,250.27,441.094,250.271z"/>
	<path fill-rule="evenodd" clip-rule="evenodd" fill="#503A75" d="M423.833,227.215c-0.175-1.747,0.633-2.495,2.383-2.498
		c1.787-0.003,2.427,0.845,2.402,2.545c-0.028,1.848-1.028,2.286-2.659,2.286C424.292,229.548,423.671,228.79,423.833,227.215z"/>
	<path fill-rule="evenodd" clip-rule="evenodd" fill="#503A75" d="M426.104,236.426c-1.57,0.162-2.311-0.482-2.313-2.137
		c0-1.626,0.413-2.636,2.279-2.651c1.692-0.015,2.561,0.6,2.552,2.393C428.612,235.771,427.857,236.588,426.104,236.426z"/>
	<path fill-rule="evenodd" clip-rule="evenodd" fill="#503A75" d="M423.845,241.096c-0.183-1.944,0.769-2.547,2.457-2.541
		c1.842,0.006,2.35,0.979,2.31,2.628c-0.042,1.896-1.162,2.201-2.737,2.194C424.166,243.368,423.647,242.505,423.845,241.096z"/>
	<path fill-rule="evenodd" clip-rule="evenodd" fill="#503A75" d="M423.83,247.839c-0.159-1.831,0.844-2.374,2.512-2.363
		c1.863,0.012,2.31,1.043,2.267,2.665c-0.049,1.918-1.227,2.149-2.774,2.154C424.069,250.303,423.707,249.309,423.83,247.839z"/>
	<path fill-rule="evenodd" clip-rule="evenodd" fill="#FEFEFE" d="M404.807,356.104c-13.141,0-26.283-0.083-39.424,0.07
		c-2.658,0.03-3.356-0.726-3.176-3.265c0.227-3.213,0.138-6.455,0.021-9.68c-0.064-1.741,0.376-2.39,2.271-2.384
		c26.745,0.059,53.49,0.052,80.235,0.021c2.724-0.003,4.088,1.089,4.008,3.897c-0.063,2.304-0.119,4.617,0.016,6.914
		c0.189,3.299-1.288,4.488-4.524,4.464C431.093,356.049,417.949,356.104,404.807,356.104z"/>
	<path fill-rule="evenodd" clip-rule="evenodd" fill="#563E7D" d="M121.878,302.84c-12.562,0-25.128-0.132-37.689,0.082
		c-3.537,0.062-3.531-1.673-3.526-4.228c0.004-2.543-0.029-4.259,3.517-4.237c25.356,0.152,50.716,0.152,76.072,0
		c3.534-0.021,3.531,1.673,3.528,4.228c-0.006,2.543,0.03,4.296-3.519,4.237C147.47,302.708,134.674,302.84,121.878,302.84z"/>
	<path fill-rule="evenodd" clip-rule="evenodd" fill="#FEFEFE" d="M248.735,194.233c-74.36,0-107.967,0-182.327,0
		c-5.583,0-5.889-0.303-5.891-5.792c-0.001-10.607-0.004-21.214,0.002-31.819c0.001-4.782,0.504-5.279,5.366-5.279
		c106.065,0-16.705,0,89.362,0c42.884,0,85.773,0,128.66,0c5.352,0,5.719,0.362,5.719,5.617c0.003,10.72,0.006,21.444,0,32.164
		c-0.007,4.562-0.558,5.106-5.195,5.106C209.836,194.233,323.326,194.233,248.735,194.233z"/>
	<path fill-rule="evenodd" clip-rule="evenodd" fill="#FEFEFE" d="M382.326,194.233c-20.403,0-40.81,0.001-61.213-0.003
		c-4.632,0-5.195-0.549-5.198-5.096c-0.006-11.067-0.012-22.133,0.006-33.201c0.004-3.872,0.729-4.584,4.663-4.586
		c41.155-0.009,82.311-0.009,123.466,0c3.952,0.001,4.668,0.702,4.675,4.572c0.018,11.182,0.018,22.364,0.003,33.546
		c-0.006,4.118-0.658,4.761-4.843,4.761C423.365,194.238,402.846,194.233,382.326,194.233z M383.024,169.33
		c-15.218,0-30.436,0.11-45.646-0.083c-3.533-0.046-3.537,1.667-3.53,4.227c0.009,2.538-0.034,4.253,3.515,4.236
		c30.2-0.141,60.399-0.139,90.599,0c3.527,0.017,3.54-1.661,3.53-4.222c-0.009-2.538,0.037-4.287-3.515-4.241
		C412.993,169.443,398.006,169.33,383.024,169.33z"/>
	<path fill-rule="evenodd" clip-rule="evenodd" fill="#563E7D" d="M383.024,169.33c14.982,0,29.97,0.113,44.952-0.083
		c3.552-0.046,3.506,1.703,3.515,4.241c0.01,2.561-0.003,4.239-3.53,4.222c-30.199-0.139-60.398-0.141-90.599,0
		c-3.549,0.017-3.506-1.698-3.515-4.236c-0.007-2.559-0.003-4.272,3.53-4.227C352.588,169.44,367.806,169.33,383.024,169.33z"/>
	<path fill-rule="evenodd" clip-rule="evenodd" fill="#533B78" d="M387.285,238.543c-0.089,1.68-0.915,2.484-2.172,2.474
		c-1.45-0.011-2.265-0.941-2.194-2.458c0.064-1.346,0.793-2.126,2.148-2.132C386.64,236.42,387.24,237.403,387.285,238.543z"/>
</g>
<g id="Camada_2">
</g>
</svg>
