<?xml version="1.0" encoding="utf-8"?>
<!-- Generator: Adobe Illustrator 16.0.0, SVG Export Plug-In . SVG Version: 6.00 Build 0)  -->
<!DOCTYPE svg PUBLIC "-//W3C//DTD SVG 1.1//EN" "http://www.w3.org/Graphics/SVG/1.1/DTD/svg11.dtd">
<svg version="1.1" id="Camada_1" xmlns="http://www.w3.org/2000/svg" xmlns:xlink="http://www.w3.org/1999/xlink" x="0px" y="0px"
	 width="512px" height="512px" viewBox="0 0 512 512" enable-background="new 0 0 512 512" xml:space="preserve">
<g>
	<path fill="#BA2D35" d="M262.006,498.006c-130.137,0-236.003-105.866-236.003-236c0-130.137,105.866-236.003,236.003-236.003
		c130.135,0,236,105.866,236,236.003C498.006,392.14,392.141,498.006,262.006,498.006z M262.006,54.322
		c-114.518,0-207.685,93.167-207.685,207.684c0,114.514,93.167,207.682,207.685,207.682c114.513,0,207.681-93.168,207.681-207.682
		C469.687,147.489,376.519,54.322,262.006,54.322z"/>
</g>
<path fill="#EA4B4C" d="M176.488,376.921c51.976,15.033,103.079,15.062,154.121,0.188c0.091,0.398,0.261,0.717,0.174,0.828
	c-14.82,18.611-12.961,40.998-14.189,62.68c-0.599,10.555-1.396,21.109-1.626,31.677c-0.145,6.499-4.432,8.921-9.292,10.901
	c-10.133,4.126-20.905,5.526-31.682,6.426c-22.815,1.905-45.432,1.19-67.577-5.611c-8.115-2.495-11.601-7.206-11.904-15.898
	c-0.652-18.679-2.594-37.306-3.4-55.98c-0.439-10.23-4.813-18.628-9.908-26.957C179.699,382.715,178.338,380.171,176.488,376.921z"
	/>
<g>
	<path fill="#F4787E" d="M256,492C125.866,492,20,386.134,20,256S125.866,20,256,20c130.135,0,236,105.866,236,236
		S386.135,492,256,492z M256,48.319C141.486,48.319,48.319,141.486,48.319,256c0,114.514,93.167,207.682,207.682,207.682
		c114.513,0,207.681-93.168,207.681-207.682C463.681,141.486,370.513,48.319,256,48.319z"/>
</g>
<path fill="#FFFFFF" d="M72.935,303.823"/>
<path fill="#FFFFFF" d="M72.935,303.823"/>
<path fill="#EA4B4C" d="M195.637,279.221c-2.084,8.055-3.516,13.771-5.059,19.457c-0.824,3.037-1.466,6.596,1.794,7.902
	c3.617,1.451,5.33-2.153,6.215-4.885c5.741-17.723,11.398-35.477,16.713-53.325c0.887-2.974,2.401-7.627-2.492-8.955
	c-5.131-1.39-6.376,2.984-7.264,6.692c-3.316,13.857-11.588,24.216-22.657,32.657c-3.073,2.342-6.496,4.821-10.354,2.668
	c-3.75-2.095-4.067-6.555-3.597-10.152c2.881-21.877,11.609-41.069,28.032-56.14c7.333-6.73,12.214-5.598,17.893,2.546
	c1.845,2.646,3.323,7.6,7.751,4.789c4.151-2.638,3.131-6.927,0.769-10.816c-6.503-10.717-18.084-13.625-29.438-6.776
	c-15.108,9.115-23.203,23.826-30.222,39.27c-1.078,2.372-1.232,5.204-4.16,7.694c-4.165-38.356-8.254-76.064-12.33-113.62
	c71.749,13.862,143.031,13.815,215.259,0.093c-1.231,12.372-2.425,25.448-3.856,38.496c-3.042,27.715-6.372,55.399-9.164,83.134
	c-0.462,4.568-2.116,7.551-5.505,10.133c-6.214,4.738-11.321,11.168-20.165,14.135c0.63-5.322,3.841-7.262,5.925-9.863
	c3.557-4.443,7.258-8.771,9.754-13.946c1.83-3.794,3.244-7.789-0.042-11.355c-3.593-3.902-8.436-3.938-12.767-1.879
	c-4.324,2.054-8.144,5.173-12.599,8.096c-1.072-2.296,0.704-6.573-3.239-6.946c-3.677-0.347-5.146,2.931-5.841,5.748
	c-2.64,10.703-9.854,17.738-18.433,23.705c-2.564,1.785-5.583,5.441-8.417,3.402c-2.909-2.094-0.431-5.982,0.759-8.922
	c6.781-16.785,13.621-33.547,20.438-50.321c0.915-2.247,2.079-4.435,2.65-6.768c0.586-2.396,0.688-5.108-2.337-6.145
	c-2.646-0.907-4.869,0.21-6.239,2.535c-1.09,1.845-1.895,3.878-2.686,5.883c-7.324,18.612-14.583,37.247-21.975,55.832
	c-0.769,1.927-0.845,4.24-2.973,5.601c-2.952,1.888-6.116,5.041-9.437,3.188c-3.563-1.984-1.161-5.863-0.209-8.777
	c1.504-4.613,3.694-9.016,5.031-13.669c1.214-4.224,6.939-9.968,0.613-12.666c-6.491-2.77-6.635,5.177-8.394,9.168
	c-2.516,5.717-4.953,11.491-8.837,16.366c-3.587,4.506-7.871,11.832-13.887,8.143c-5.023-3.08,0.222-9.791,1.909-14.595
	c1.604-4.563,4.172-8.79,6.376-13.133c1.237-2.443,1.66-4.814-1.218-6.22c-2.396-1.169-5.223-0.919-6.512,1.514
	c-6.193,11.702-12.548,23.518-12.72,37.165c-0.083,6.781,5.159,8.394,10.913,7.524c6.731-1.014,11.775-5.129,16.772-10.979
	c1.065,4.533,0.486,9.679,5.464,10.902c4.271,1.051,7.709-1.824,11.294-3.652c1.311-0.668,2.958-2.881,4.088-1.074
	c5.78,9.253,11.908,3.762,18.113,0.859c1.545-0.721,2.992-3.207,4.896-1.43c1.681,1.57,0.188,3.45-0.585,5.178
	c-3.098,6.908-6.208,13.814-9.101,20.81c-1.315,3.19-3.177,7.248,1.402,9.053c4.491,1.769,7.171-1.703,8.552-5.438
	c4.496-12.176,9.014-24.328,14.589-36.067c3.998-8.421,8.845-16.202,16.405-21.851c2.221-1.659,5.319-4.555,7.86-2.203
	c2.945,2.729-0.571,5.322-2.218,7.544c-3.551,4.786-7.443,9.321-10.953,14.137c-2.61,3.584-4.998,7.749-1.461,11.823
	c3.242,3.734,7.693,3.109,12.081,1.679c4.736-1.548,8.773-4.178,12.538-7.319c2.427-2.029,4.819-4.093,8.348-7.093
	c-2.469,21.782-4.728,41.877-7.032,61.97c-0.804,6.984-2.357,13.95-2.417,20.936c-0.055,6.445-3.354,9.08-8.622,11.036
	c-17.157,6.36-35.046,9.233-53.137,10.561c-31.824,2.33-63.301,0.38-94.033-9.142c-7.901-2.447-12.359-5.71-12.701-15.592
	c-0.668-19.438-3.521-38.805-5.721-58.174c-0.543-4.789,0.077-7.072,5.669-5.982c5.438,1.061,10.018-1.686,14.23-4.771
	C187.184,286.073,190.461,283.32,195.637,279.221z"/>
<path fill="#EA4D4E" d="M300.278,113.683c17.611,2.022,34.694,2.856,51.223,7.255c4.519,1.203,11.557,1.65,11.629,6.969
	c0.069,5.403-7.013,5.981-11.479,7.103c-25.116,6.309-50.902,7.165-76.574,8.056c-36.072,1.25-72.079-0.088-107.767-6.045
	c-5.032-0.84-9.994-2.331-14.845-3.951c-2.674-0.892-6.384-1.96-6.175-5.406c0.172-2.792,3.531-3.96,6.047-4.829
	c11.575-3.999,23.634-5.625,35.75-6.901c28.618-3.014,57.322-3.754,86.073-3.102c4.209,0.096,6.542-0.89,7.085-5.537
	c0.465-3.989,2.17-7.821,2.854-11.804c3.249-18.878,11.01-34.8,25.83-47.888c13.154-11.618,24.641-25.178,36.431-38.271
	c5.637-6.258,9.481-2.225,13.575,1.233c4.55,3.842,4.728,7.536,0.149,12.177c-13.702,13.897-26.799,28.398-40.493,42.306
	c-6.826,6.93-11.928,14.216-13.29,24.243C305.22,97.25,302.493,104.983,300.278,113.683z"/>
<g id="Camada_2">
</g>
</svg>
