<?xml version="1.0" encoding="utf-8"?>
<!-- Generator: Adobe Illustrator 16.0.0, SVG Export Plug-In . SVG Version: 6.00 Build 0)  -->
<!DOCTYPE svg PUBLIC "-//W3C//DTD SVG 1.1//EN" "http://www.w3.org/Graphics/SVG/1.1/DTD/svg11.dtd">
<svg version="1.1" id="Camada_1" xmlns="http://www.w3.org/2000/svg" xmlns:xlink="http://www.w3.org/1999/xlink" x="0px" y="0px"
	 width="512px" height="512px" viewBox="0 0 512 512" enable-background="new 0 0 512 512" xml:space="preserve">
<g>
	<path fill="#437982" d="M262.006,498.006c-130.137,0-236.003-105.866-236.003-236c0-130.137,105.866-236.003,236.003-236.003
		c130.135,0,236,105.866,236,236.003C498.006,392.14,392.141,498.006,262.006,498.006z M262.006,54.322
		c-114.518,0-207.685,93.167-207.685,207.684c0,114.514,93.167,207.682,207.685,207.682c114.513,0,207.681-93.168,207.681-207.682
		C469.687,147.489,376.519,54.322,262.006,54.322z"/>
</g>
<g>
	<path fill="#AAEBFA" d="M256,492C125.866,492,20,386.134,20,256S125.866,20,256,20c130.135,0,236,105.866,236,236
		S386.135,492,256,492z M256,48.319C141.486,48.319,48.319,141.486,48.319,256c0,114.514,93.167,207.682,207.682,207.682
		c114.513,0,207.681-93.168,207.681-207.682C463.681,141.486,370.513,48.319,256,48.319z"/>
</g>
<g id="Camada_2">
</g>
<path fill="#BEF5FF" d="M371.466,164.011c-11.936-39.51-48.588-68.294-91.993-68.294c-30.57,0-57.751,14.319-75.355,36.564
	c-4.731-1.679-9.801-2.64-15.108-2.64c-24.981,0-45.232,20.251-45.232,45.232c0,0.38,0.047,0.749,0.056,1.127
	c-25.835,5.216-45.289,28.038-45.289,55.413c0,31.226,25.314,56.541,56.541,56.541h209.201c34.347,0,62.193-27.847,62.193-62.195
	C426.479,193.843,402.428,167.577,371.466,164.011z"/>
<g>
	<path fill="#AAEBFA" d="M149.43,242.722c0-25.434,16.795-46.936,39.896-54.042c1.589-14.108,13.42-25.115,27.952-25.115
		c1.05,0,2.045,0.197,3.064,0.309c9.806-36,42.639-62.503,81.747-62.503c4.093,0,8.111,0.314,12.05,0.875
		c-10.761-4.17-22.428-6.528-34.666-6.528c-30.57,0-57.751,14.319-75.355,36.564c-4.731-1.679-9.801-2.64-15.108-2.64
		c-24.981,0-45.232,20.251-45.232,45.232c0,0.38,0.047,0.749,0.056,1.127c-25.835,5.216-45.289,28.038-45.289,55.413
		c0,31.226,25.314,56.541,56.541,56.541h17.065C158.381,277.642,149.43,261.247,149.43,242.722z"/>
	<circle fill="#AAEBFA" cx="234.241" cy="412.342" r="11.308"/>
</g>
<g>
	<path fill="#91D2EB" d="M234.241,355.803c3.122,0,5.653,2.529,5.653,5.655c0,3.121-2.531,5.652-5.653,5.652
		c-3.124,0-5.655-2.531-5.655-5.652C228.587,358.332,231.118,355.803,234.241,355.803z"/>
	<circle fill="#91D2EB" cx="234.241" cy="384.074" r="5.655"/>
	<circle fill="#91D2EB" cx="234.241" cy="316.225" r="5.654"/>
	<path fill="#91D2EB" d="M234.241,333.186c3.122,0,5.653,2.531,5.653,5.655c0,3.12-2.531,5.654-5.653,5.654
		c-3.124,0-5.655-2.534-5.655-5.654C228.587,335.717,231.118,333.186,234.241,333.186z"/>
	<path fill="#91D2EB" d="M228.587,287.955v5.653c0,3.121,2.532,5.654,5.655,5.654c3.122,0,5.653-2.533,5.653-5.654v-5.653H228.587z"
		/>
</g>
<circle fill="#AAEBFA" cx="290.781" cy="412.342" r="11.308"/>
<g>
	<path fill="#91D2EB" d="M290.781,355.803c3.124,0,5.653,2.529,5.653,5.655c0,3.121-2.529,5.652-5.653,5.652
		c-3.123,0-5.654-2.531-5.654-5.652C285.127,358.332,287.658,355.803,290.781,355.803z"/>
	<circle fill="#91D2EB" cx="290.781" cy="384.074" r="5.655"/>
	<circle fill="#91D2EB" cx="290.781" cy="316.225" r="5.654"/>
	<path fill="#91D2EB" d="M290.781,333.186c3.124,0,5.653,2.531,5.653,5.655c0,3.12-2.529,5.654-5.653,5.654
		c-3.123,0-5.654-2.534-5.654-5.654C285.127,335.717,287.658,333.186,290.781,333.186z"/>
	<path fill="#91D2EB" d="M285.127,287.955v5.653c0,3.121,2.531,5.654,5.654,5.654c3.122,0,5.653-2.533,5.653-5.654v-5.653H285.127z"
		/>
</g>
<circle fill="#AAEBFA" cx="126.814" cy="361.457" r="11.308"/>
<g>
	<path fill="#91D2EB" d="M177.7,355.803c3.123,0,5.655,2.529,5.655,5.655c0,3.121-2.532,5.652-5.655,5.652
		c-3.123,0-5.654-2.531-5.654-5.652C172.046,358.332,174.577,355.803,177.7,355.803z"/>
	<path fill="#91D2EB" d="M155.085,355.803c3.123,0,5.654,2.529,5.654,5.655c0,3.121-2.532,5.652-5.654,5.652
		c-3.124,0-5.655-2.531-5.655-5.652C149.43,358.332,151.961,355.803,155.085,355.803z"/>
	<circle fill="#91D2EB" cx="177.7" cy="316.225" r="5.654"/>
	<path fill="#91D2EB" d="M177.7,333.186c3.123,0,5.655,2.531,5.655,5.655c0,3.12-2.532,5.654-5.655,5.654
		c-3.123,0-5.654-2.534-5.654-5.654C172.046,335.717,174.577,333.186,177.7,333.186z"/>
	<path fill="#91D2EB" d="M172.047,287.955v5.653c0,3.121,2.532,5.654,5.655,5.654s5.654-2.533,5.654-5.654v-5.653H172.047z"/>
</g>
<circle fill="#AAEBFA" cx="398.208" cy="361.457" r="11.308"/>
<g>
	<path fill="#91D2EB" d="M347.323,355.803c3.122,0,5.654,2.529,5.654,5.655c0,3.121-2.532,5.652-5.654,5.652
		s-5.655-2.531-5.655-5.652C341.667,358.332,344.2,355.803,347.323,355.803z"/>
	<path fill="#91D2EB" d="M369.939,355.803c3.122,0,5.654,2.529,5.654,5.655c0,3.121-2.532,5.652-5.654,5.652
		s-5.655-2.531-5.655-5.652C364.283,358.332,366.817,355.803,369.939,355.803z"/>
	<circle fill="#91D2EB" cx="347.323" cy="316.225" r="5.654"/>
	<path fill="#91D2EB" d="M347.323,333.186c3.122,0,5.654,2.531,5.654,5.655c0,3.12-2.532,5.654-5.654,5.654
		s-5.655-2.534-5.655-5.654C341.667,335.717,344.2,333.186,347.323,333.186z"/>
	<path fill="#91D2EB" d="M352.975,287.955v5.653c0,3.121-2.531,5.654-5.653,5.654c-3.123,0-5.654-2.533-5.654-5.654v-5.653H352.975z
		"/>
</g>
<g>
	<path fill="#EFF2FA" d="M305.42,263.894c0,2.79-2.262,5.053-5.053,5.053H174.889c-2.791,0-5.053-2.263-5.053-5.053v-85.338
		c0-2.791,2.262-5.053,5.053-5.053h125.479c2.791,0,5.053,2.263,5.053,5.053V263.894z"/>
	<path fill="#97A8C6" d="M301.773,159.517H173.734c-4.08,0-7.386,3.307-7.386,7.386v98.492c0,4.079,3.306,7.387,7.386,7.387h128.039
		c4.079,0,7.387-3.308,7.387-7.387v-98.492C309.159,162.824,305.852,159.517,301.773,159.517z M304.236,265.395
		c0,1.358-1.104,2.463-2.463,2.463H173.734c-1.36,0-2.461-1.104-2.461-2.463v-88.642c0-1.359,1.102-2.462,2.461-2.462h128.039
		c1.359,0,2.463,1.103,2.463,2.462V265.395L304.236,265.395z"/>
	<circle fill="#FF6464" cx="173.734" cy="166.904" r="2.462"/>
	<circle fill="#FFE182" cx="181.121" cy="166.904" r="2.462"/>
	<circle fill="#A5D76E" cx="188.508" cy="166.904" r="2.462"/>
	<g>
		<path fill="#EFF2FA" d="M200.82,169.366h-2.463c-1.359,0-2.461-1.103-2.461-2.463l0,0c0-1.36,1.102-2.462,2.461-2.462h2.463
			c1.36,0,2.463,1.102,2.463,2.462l0,0C203.281,168.264,202.179,169.366,200.82,169.366z"/>
		<path fill="#EFF2FA" d="M210.67,169.366h-2.463c-1.36,0-2.463-1.103-2.463-2.463l0,0c0-1.36,1.103-2.462,2.463-2.462h2.463
			c1.359,0,2.461,1.102,2.461,2.462l0,0C213.131,168.264,212.029,169.366,210.67,169.366z"/>
		<path fill="#EFF2FA" d="M291.923,169.366h-2.462c-1.36,0-2.463-1.103-2.463-2.463l0,0c0-1.36,1.103-2.462,2.463-2.462h2.462
			c1.36,0,2.463,1.102,2.463,2.462l0,0C294.386,168.264,293.283,169.366,291.923,169.366z"/>
		<path fill="#EFF2FA" d="M301.773,169.366h-2.463c-1.359,0-2.464-1.103-2.464-2.463l0,0c0-1.36,1.104-2.462,2.464-2.462h2.463
			c1.358,0,2.463,1.102,2.463,2.462l0,0C304.236,168.264,303.132,169.366,301.773,169.366z"/>
		<path fill="#EFF2FA" d="M279.611,169.366h-59.093c-1.36,0-2.463-1.103-2.463-2.463l0,0c0-1.36,1.103-2.462,2.463-2.462h59.093
			c1.361,0,2.464,1.102,2.464,2.462l0,0C282.074,168.264,280.972,169.366,279.611,169.366z"/>
	</g>
	<path fill="#28BEFF" d="M215.594,225.999h-27.086c-1.359,0-2.462-1.102-2.462-2.462l0,0c0-1.361,1.103-2.462,2.462-2.462h27.085
		c1.359,0,2.462,1.102,2.462,2.462l0,0C218.055,224.896,216.953,225.999,215.594,225.999z"/>
	<path fill="#D7DEED" d="M274.688,245.697h-86.18c-1.359,0-2.462-1.103-2.462-2.463l0,0c0-1.36,1.103-2.463,2.462-2.463h86.18
		c1.359,0,2.462,1.103,2.462,2.463l0,0C277.15,244.594,276.047,245.697,274.688,245.697z"/>
	<path fill="#EA2873" d="M296.96,183.531H178.353c-1.871,0-3.388-1.518-3.388-3.39l0,0c0-1.871,1.517-3.389,3.388-3.389H296.96
		c1.871,0,3.389,1.518,3.389,3.389l0,0C300.349,182.014,298.831,183.531,296.96,183.531z"/>
	<path fill="#EA2873" d="M300.31,190.106c0.023-0.161,0.039-0.324,0.039-0.491c0-1.871-1.518-3.389-3.389-3.389H178.353
		c-1.871,0-3.388,1.518-3.388,3.389c0,0.167,0.016,0.33,0.039,0.491c-0.023,0.161-0.039,0.324-0.039,0.491
		c0,0.131,0.009,0.259,0.023,0.387c-0.015,0.126-0.023,21.321-0.023,21.453c0,1.872,1.517,3.39,3.388,3.39H296.96
		c1.871,0,3.389-1.519,3.389-3.39c0-0.131-0.009-21.326-0.023-21.453c0.015-0.127,0.023-0.255,0.023-0.386
		C300.349,190.431,300.333,190.267,300.31,190.106z"/>
	<path fill="#C3E678" d="M222.98,235.848h-34.472c-1.359,0-2.462-1.102-2.462-2.462l0,0c0-1.36,1.103-2.463,2.462-2.463h34.472
		c1.359,0,2.462,1.103,2.462,2.463l0,0C225.442,234.746,224.339,235.848,222.98,235.848z"/>
	<path fill="#28BEFF" d="M242.678,235.848h-9.85c-1.36,0-2.463-1.102-2.463-2.462l0,0c0-1.36,1.103-2.463,2.463-2.463h9.85
		c1.359,0,2.462,1.103,2.462,2.463l0,0C245.14,234.746,244.038,235.848,242.678,235.848z"/>
	<path fill="#D7DEED" d="M252.528,255.546h-64.02c-1.359,0-2.462-1.104-2.462-2.463l0,0c0-1.36,1.103-2.462,2.462-2.462h64.02
		c1.359,0,2.461,1.102,2.461,2.462l0,0C254.989,254.444,253.886,255.546,252.528,255.546z"/>
</g>
<g>
	<path fill="#EFF2FA" d="M405.471,314.252c0,3.054-2.476,5.529-5.529,5.529H262.625c-3.054,0-5.529-2.476-5.529-5.529v-93.388
		c0-3.054,2.476-5.53,5.529-5.53h137.316c3.054,0,5.529,2.476,5.529,5.53V314.252z"/>
	<path fill="#97A8C6" d="M401.479,200.029H261.362c-4.465,0-8.083,3.619-8.083,8.083v107.783c0,4.464,3.618,8.084,8.083,8.084
		h140.117c4.464,0,8.084-3.62,8.084-8.084V208.112C409.563,203.648,405.943,200.029,401.479,200.029z M404.174,315.895
		c0,1.487-1.207,2.695-2.695,2.695H261.362c-1.488,0-2.693-1.207-2.693-2.695v-97.004c0-1.488,1.205-2.694,2.693-2.694h140.117
		c1.488,0,2.695,1.207,2.695,2.694V315.895L404.174,315.895z"/>
	<circle fill="#FF6464" cx="261.362" cy="208.113" r="2.695"/>
	<circle fill="#FFE182" cx="269.446" cy="208.113" r="2.695"/>
	<circle fill="#A5D76E" cx="277.529" cy="208.113" r="2.695"/>
	<g>
		<path fill="#EFF2FA" d="M291.002,210.807h-2.695c-1.487,0-2.693-1.207-2.693-2.695l0,0c0-1.488,1.206-2.694,2.693-2.694h2.695
			c1.488,0,2.695,1.206,2.695,2.694l0,0C293.697,209.601,292.49,210.807,291.002,210.807z"/>
		<path fill="#EFF2FA" d="M301.781,210.807h-2.695c-1.488,0-2.695-1.207-2.695-2.695l0,0c0-1.488,1.207-2.694,2.695-2.694h2.695
			c1.487,0,2.693,1.206,2.693,2.694l0,0C304.475,209.601,303.269,210.807,301.781,210.807z"/>
		<path fill="#EFF2FA" d="M390.7,210.807h-2.694c-1.488,0-2.695-1.207-2.695-2.695l0,0c0-1.488,1.207-2.694,2.695-2.694h2.694
			c1.488,0,2.695,1.206,2.695,2.694l0,0C393.396,209.601,392.189,210.807,390.7,210.807z"/>
		<path fill="#EFF2FA" d="M401.479,210.807h-2.695c-1.487,0-2.695-1.207-2.695-2.695l0,0c0-1.488,1.208-2.694,2.695-2.694h2.695
			c1.487,0,2.695,1.206,2.695,2.694l0,0C404.174,209.601,402.967,210.807,401.479,210.807z"/>
		<path fill="#EFF2FA" d="M377.227,210.807h-64.668c-1.488,0-2.695-1.207-2.695-2.695l0,0c0-1.488,1.207-2.694,2.695-2.694h64.668
			c1.489,0,2.695,1.206,2.695,2.694l0,0C379.922,209.601,378.716,210.807,377.227,210.807z"/>
	</g>
	<path fill="#28BEFF" d="M307.17,272.782h-29.642c-1.487,0-2.694-1.206-2.694-2.694l0,0c0-1.489,1.207-2.694,2.694-2.694h29.641
		c1.487,0,2.694,1.205,2.694,2.694l0,0C309.864,271.576,308.657,272.782,307.17,272.782z"/>
	<path fill="#D7DEED" d="M371.839,294.339h-94.311c-1.487,0-2.694-1.207-2.694-2.695l0,0c0-1.488,1.207-2.695,2.694-2.695h94.311
		c1.487,0,2.694,1.207,2.694,2.695l0,0C374.533,293.132,373.326,294.339,371.839,294.339z"/>
	<path fill="#2F76F4" d="M396.213,226.309H266.416c-2.047,0-3.707-1.661-3.707-3.709l0,0c0-2.047,1.66-3.708,3.707-3.708h129.797
		c2.047,0,3.708,1.661,3.708,3.708l0,0C399.921,224.648,398.26,226.309,396.213,226.309z"/>
	<path fill="#2677ED" d="M399.878,233.504c0.025-0.176,0.043-0.354,0.043-0.537c0-2.048-1.661-3.708-3.708-3.708H266.416
		c-2.047,0-3.707,1.661-3.707,3.708c0,0.183,0.018,0.361,0.043,0.538c-0.025,0.176-0.043,0.354-0.043,0.537
		c0,0.143,0.01,0.284,0.025,0.423c-0.016,0.139-0.025,23.333-0.025,23.477c0,2.048,1.66,3.71,3.707,3.71h129.797
		c2.047,0,3.708-1.662,3.708-3.71c0-0.144-0.01-23.338-0.025-23.477c0.016-0.139,0.025-0.279,0.025-0.422
		C399.921,233.859,399.904,233.68,399.878,233.504z"/>
	<path fill="#C3E678" d="M315.253,283.561h-37.725c-1.487,0-2.694-1.206-2.694-2.694l0,0c0-1.488,1.207-2.695,2.694-2.695h37.725
		c1.487,0,2.694,1.207,2.694,2.695l0,0C317.948,282.354,316.74,283.561,315.253,283.561z"/>
	<path fill="#28BEFF" d="M336.81,283.561h-10.778c-1.488,0-2.695-1.206-2.695-2.694l0,0c0-1.488,1.207-2.695,2.695-2.695h10.778
		c1.487,0,2.694,1.207,2.694,2.695l0,0C339.504,282.354,338.298,283.561,336.81,283.561z"/>
	<path fill="#D7DEED" d="M347.588,305.117h-70.06c-1.487,0-2.694-1.208-2.694-2.695l0,0c0-1.488,1.207-2.694,2.694-2.694h70.06
		c1.487,0,2.693,1.206,2.693,2.694l0,0C350.281,303.911,349.075,305.117,347.588,305.117z"/>
</g>
</svg>
