<?xml version="1.0" encoding="utf-8"?>
<!-- Generator: Adobe Illustrator 16.0.0, SVG Export Plug-In . SVG Version: 6.00 Build 0)  -->
<!DOCTYPE svg PUBLIC "-//W3C//DTD SVG 1.1//EN" "http://www.w3.org/Graphics/SVG/1.1/DTD/svg11.dtd">
<svg version="1.1" id="Camada_1" xmlns="http://www.w3.org/2000/svg" xmlns:xlink="http://www.w3.org/1999/xlink" x="0px" y="0px"
	 width="512px" height="512px" viewBox="0 0 512 512" enable-background="new 0 0 512 512" xml:space="preserve">
<g>
	<path fill="#824209" d="M262.006,498.006c-130.137,0-236.003-105.866-236.003-236c0-130.137,105.866-236.003,236.003-236.003
		c130.135,0,236,105.866,236,236.003C498.006,392.14,392.141,498.006,262.006,498.006z M262.006,54.322
		c-114.518,0-207.685,93.167-207.685,207.684c0,114.514,93.167,207.682,207.685,207.682c114.513,0,207.681-93.168,207.681-207.682
		C469.687,147.489,376.519,54.322,262.006,54.322z"/>
</g>
<path fill="#F38D22" d="M83.763,192.83c4.693,13.63,9.385,27.261,14.078,40.892c-13.689,4.769-27.393,9.496-41.058,14.337
	c-3.494,1.238-5.531,0.339-6.726-3.223c-3.511-10.473-7.104-20.919-10.789-31.333c-1.253-3.548-0.186-5.519,3.313-6.692
	C56.328,202.204,70.04,197.499,83.763,192.83z M69.698,228.346c1.771-1.25,5.186-0.479,5.367-3.747
	c0.104-1.859-0.852-4.061-2.875-4.373c-1.833-0.282-2.641-0.205-2.539-2.537c0.096-2.207-1.825-3.242-3.998-2.657
	c-2.114,0.568-2.877,2.072-2.466,4.348c0.191,1.06,2.433,1.628,0.934,2.877c-2.414,2.01-2.126,4.439-0.639,6.358
	C65.281,230.936,67.546,228.643,69.698,228.346z"/>
<path fill="#FEFEFE" d="M70.719,227.995c-2.152,0.296-4.417,2.59-6.214,0.271c-1.488-1.919-1.776-4.348,0.637-6.358
	c1.499-1.249-0.741-1.818-0.932-2.878c-0.412-2.276,0.352-3.779,2.466-4.348c2.17-0.584,4.091,0.451,3.996,2.658
	c-0.102,2.331,0.707,2.253,2.539,2.536c2.023,0.311,2.979,2.513,2.876,4.373C75.904,227.516,72.49,226.744,70.719,227.995z"/>
<g>
	<path fill="#BA6417" d="M256,492C125.866,492,20,386.134,20,256S125.866,20,256,20c130.135,0,236,105.866,236,236
		S386.135,492,256,492z M256,48.319C141.486,48.319,48.319,141.486,48.319,256c0,114.514,93.167,207.682,207.682,207.682
		c114.513,0,207.681-93.168,207.681-207.682C463.681,141.486,370.513,48.319,256,48.319z"/>
</g>
<path fill="#FFFFFF" d="M72.935,303.823"/>
<path fill="#FFFFFF" d="M72.935,303.823"/>
<path fill="#BFBABA" d="M443.815,226.722c7.393-2.545,7.397-2.542,9.911,4.757c6.531,18.966,13.066,37.93,19.586,56.899
	c2.146,6.237,2.029,6.497-4.066,8.597c-102.68,35.356-205.369,70.688-308.015,106.135c-3.563,1.229-5.016,0.926-6.194-2.91
	c-2.593-8.42-5.746-16.664-8.668-24.98c-4.655-13.701-9.312-27.406-13.965-41.109c1.613-0.613,3.211-1.274,4.843-1.836"/>
<path fill="#BFBABA" d="M395.009,85.5c7.562-2.604,7.563-2.6,10.188,5.018c3.152,9.151,6.093,18.381,9.538,27.42
	c1.786,4.674,0.72,6.73-4.037,8.349c-41.562,14.141-83.049,28.495-124.557,42.785c-60.792,20.929-121.581,41.859-182.374,62.779
	c-1.958,0.674-3.949,1.249-5.926,1.871c-4.693-13.631-9.385-27.261-14.078-40.892c1.777-0.671,3.537-1.388,5.331-2.005"/>
<path fill="#BFBABA" d="M411.222,132.594c7.562-2.603,7.563-2.601,10.187,5.017c3.153,9.151,6.093,18.383,9.539,27.421
	c1.785,4.675,0.721,6.73-4.038,8.349c-41.561,14.14-83.048,28.495-124.556,42.785c-60.792,20.929-121.582,41.857-182.374,62.779
	c-1.958,0.673-3.948,1.248-5.924,1.867c-4.692-13.629-9.387-27.259-14.079-40.888c1.777-0.671,3.537-1.389,5.33-2.006"/>
<path fill="#BFBABA" d="M427.435,179.687c7.562-2.603,7.563-2.601,10.187,5.017c3.153,9.151,6.094,18.382,9.541,27.42
	c1.784,4.676,0.719,6.731-4.04,8.35c-41.561,14.141-83.048,28.496-124.556,42.785c-60.791,20.931-121.582,41.858-182.374,62.779
	c-1.958,0.675-3.948,1.249-5.925,1.871c-4.692-13.632-9.385-27.263-14.078-40.894c1.777-0.67,3.537-1.387,5.331-2.005"/>
<path fill="#F38D21" d="M370.818,347.664c-0.664-1.934-1.662-3.926,0.402-5.682c2.169,0.363,4.071-0.597,6.017-1.266
	c31.383-10.789,62.761-21.592,94.137-32.408c1.944-0.67,4.031-1.092,5.523-2.703c2.411,0.088,3.014,1.929,3.641,3.754
	c3.638,10.576,7.26,21.16,10.939,31.726c0.659,1.896,0.825,3.673-0.272,5.437c-35.361,12.176-70.725,24.35-106.085,36.522
	c-2.199-0.763-3.039-2.577-3.73-4.606"/>
<path fill="#F38D21" d="M132.402,334.109c4.654,13.703,9.31,27.406,13.965,41.108c-13.201,4.544-26.397,9.106-39.608,13.624
	c-5.916,2.021-6.474,1.731-8.573-4.313c-3.391-9.771-6.662-19.584-10.142-29.321c-1.296-3.628-0.644-5.856,3.229-7.146
	C105.009,343.486,118.696,338.771,132.402,334.109z M114.373,371.029c4.396-0.807,7.622-3.655,10.521-6.666
	c2.041-2.119,1.664-4.762-0.833-6.741c-5.226-3.069-10.594-2.539-13.828,1.411c-1.635,1.999-2.797,4.611-0.585,6.381
	C111.693,367.049,112.551,369.391,114.373,371.029z"/>
<path fill="#F38E22" d="M99.977,239.924c4.692,13.628,9.387,27.26,14.079,40.889c-13.688,4.77-27.395,9.496-41.058,14.336
	c-3.494,1.238-5.53,0.342-6.725-3.221c-3.511-10.474-7.104-20.919-10.789-31.332c-1.253-3.549-0.184-5.52,3.314-6.692
	C72.544,249.299,86.255,244.593,99.977,239.924z M93.686,270.945c-0.251-3.699-1.947-6.951-3.213-10.336
	c-5.929-0.522-11.065,1.246-15.417,5.306c1.096,3.449,1.753,7.063,3.843,10.135C84.2,275.423,89.137,273.744,93.686,270.945z"/>
<path fill="#F38D22" d="M116.189,287.016c4.693,13.631,9.386,27.262,14.078,40.894c-13.688,4.769-27.393,9.495-41.058,14.337
	c-3.494,1.236-5.531,0.339-6.726-3.223c-3.511-10.475-7.104-20.92-10.789-31.334c-1.253-3.547-0.186-5.521,3.313-6.691
	C88.754,296.391,102.465,291.686,116.189,287.016z M102.502,322.357c7.673-2.641,7.673-2.641,5.192-9.854
	c-2.649-7.71-2.649-7.71-9.931-5.209c-7.721,2.65-7.721,2.65-5.197,9.99C95.18,324.879,95.18,324.879,102.502,322.357z"/>
<path fill="#FEF9F6" d="M115.384,370.682c-1.823-1.639-2.68-3.979-4.725-5.615c-2.214-1.77-1.052-4.383,0.584-6.381
	c3.232-3.949,8.603-4.48,13.828-1.41c1.629,4.455-0.66,7.303-4.296,9.007C118.5,367.35,116.948,368.934,115.384,370.682z"/>
<path fill="#F07319" d="M115.384,370.682c1.563-1.748,3.116-3.332,5.392-4.399c3.637-1.704,5.925-4.552,4.296-9.007
	c2.497,1.979,2.875,4.621,0.832,6.74C123.006,367.025,119.781,369.875,115.384,370.682z"/>
<path fill="#FCE6D7" d="M76.068,265.566c4.351-4.06,9.488-5.828,15.416-5.305c-0.354,0.139-0.71,0.272-1.065,0.411
	c-4.415,1.521-8.83,3.04-13.244,4.562C76.805,265.346,76.437,265.457,76.068,265.566z"/>
<path fill="#FEF9F6" d="M94.698,270.6c-4.551,2.797-9.486,4.476-14.786,5.103c0.151-0.265,0.3-0.532,0.442-0.802
	c4.499-1.549,8.998-3.096,13.496-4.645C94.131,270.374,94.414,270.488,94.698,270.6z"/>
<path fill="#FEF9F6" d="M76.068,265.566c0.369-0.109,0.737-0.221,1.105-0.332c0.457,0.563,0.915,1.123,1.372,1.686
	c-0.054,0.789-0.108,1.58-0.16,2.369c0.656,1.87,1.313,3.74,1.97,5.611c-0.143,0.269-0.291,0.535-0.442,0.801
	C77.819,272.631,77.162,269.016,76.068,265.566z"/>
<path fill="#FEF9F6" d="M90.417,260.674c0.354-0.139,0.71-0.273,1.065-0.412c1.269,3.385,2.962,6.637,3.214,10.338
	c-0.282-0.11-0.565-0.226-0.847-0.344c-0.632-1.877-1.264-3.754-1.896-5.631c-0.682-0.227-1.363-0.453-2.046-0.68
	C90.078,262.855,90.248,261.764,90.417,260.674z"/>
<path fill="#FEF9F6" d="M103.512,322.011c-7.322,2.521-7.322,2.521-9.934-5.073c-2.524-7.338-2.524-7.338,5.196-9.99
	c7.282-2.502,7.282-2.502,9.933,5.209C111.186,319.369,111.186,319.369,103.512,322.011z M107.184,316.236
	c-0.525-1.057-1.808-1.387-2.525-0.94c-3.679,2.278-5.55,1.297-6.201-2.879c-0.168-1.076-1.204-1.783-2.34-1.228
	c-1.131,0.554-0.919,1.685-0.595,2.69c0.976,3.013,7.041,5.91,9.923,4.711C106.415,318.189,107.199,317.538,107.184,316.236z"/>
<path fill="#F38E22" d="M90.417,260.674c-0.169,1.09-0.339,2.182-0.509,3.271c-0.307,0.436-1.004,0.908,0.113,1.209l0.045-0.068
	c-1.416-0.262-1.611,0.688-1.713,1.729l0.06-0.094c-1.604,1.781-3.586,2.463-5.946,2.049l0.103,0.037
	c-0.721-0.76-1.46-1.387-2.415-0.309l0.095,0.031c0.31-1.469-0.936-1.287-1.705-1.609c-0.457-0.563-0.915-1.123-1.372-1.686
	C81.588,263.714,86.003,262.193,90.417,260.674z"/>
<path fill="#F38E22" d="M91.954,264.625c0.632,1.877,1.264,3.754,1.896,5.631c-4.499,1.549-8.997,3.096-13.496,4.645
	c-0.657-1.871-1.313-3.74-1.97-5.61c0.621-0.254,1.243-0.508,1.865-0.761l-0.095-0.03c0.718,0.789,1.469,1.315,2.415,0.308
	l-0.103-0.037c3.265,3.045,5.25,2.371,5.946-2.047l-0.06,0.094c1.367,0.211,1.634-0.666,1.713-1.729l-0.045,0.067
	C90.667,264.979,91.311,264.801,91.954,264.625z"/>
<path fill="#FADBC4" d="M80.25,268.529c-0.623,0.252-1.245,0.506-1.865,0.76c0.052-0.789,0.106-1.58,0.16-2.369
	C79.315,267.242,80.56,267.061,80.25,268.529z"/>
<path fill="#FADBC4" d="M91.954,264.625c-0.644,0.176-1.288,0.354-1.933,0.529c-1.118-0.301-0.42-0.773-0.113-1.209
	C90.591,264.172,91.273,264.398,91.954,264.625z"/>
<path fill="#F38E22" d="M107.184,316.236c0.016,1.302-0.769,1.953-1.738,2.354c-2.882,1.199-8.947-1.698-9.923-4.711
	c-0.325-1.007-0.537-2.138,0.595-2.69c1.136-0.557,2.171,0.15,2.34,1.228c0.651,4.176,2.521,5.157,6.201,2.879
	C105.377,314.852,106.658,315.182,107.184,316.236z"/>
<path fill="#FADBC4" d="M88.413,266.721c-0.696,4.418-2.682,5.094-5.946,2.049C84.827,269.184,86.809,268.502,88.413,266.721z"/>
<path fill="#FADBC4" d="M90.068,265.086c-0.08,1.063-0.347,1.939-1.713,1.729C88.456,265.773,88.653,264.824,90.068,265.086z"/>
<path fill="#FADBC4" d="M82.57,268.807c-0.946,1.008-1.696,0.48-2.415-0.309C81.11,267.42,81.849,268.047,82.57,268.807z"/>
<g id="Camada_2">
</g>
</svg>
