<?xml version="1.0" encoding="utf-8"?>
<!-- Generator: Adobe Illustrator 16.0.0, SVG Export Plug-In . SVG Version: 6.00 Build 0)  -->
<!DOCTYPE svg PUBLIC "-//W3C//DTD SVG 1.1//EN" "http://www.w3.org/Graphics/SVG/1.1/DTD/svg11.dtd">
<svg version="1.1" id="Camada_1" xmlns="http://www.w3.org/2000/svg" xmlns:xlink="http://www.w3.org/1999/xlink" x="0px" y="0px"
	 width="512px" height="512px" viewBox="0 0 512 512" enable-background="new 0 0 512 512" xml:space="preserve">
<path fill="#EFF2FA" d="M419.167,376.5c0,6.627-5.373,12-12,12h-298c-6.627,0-12-5.373-12-12V173.833c0-6.627,5.373-12,12-12h298
	c6.627,0,12,5.373,12,12V376.5z"/>
<g>
	<path fill="#1A8EB7" d="M262.006,498.006c-130.137,0-236.003-105.866-236.003-236c0-130.137,105.866-236.003,236.003-236.003
		c130.135,0,236,105.866,236,236.003C498.006,392.14,392.141,498.006,262.006,498.006z M262.006,54.322
		c-114.518,0-207.685,93.167-207.685,207.684c0,114.514,93.167,207.682,207.685,207.682c114.513,0,207.681-93.168,207.681-207.682
		C469.687,147.489,376.519,54.322,262.006,54.322z"/>
</g>
<g>
	<path fill="#28BEFF" d="M256,492C125.866,492,20,386.134,20,256S125.866,20,256,20c130.135,0,236,105.866,236,236
		S386.135,492,256,492z M256,48.319C141.486,48.319,48.319,141.486,48.319,256c0,114.514,93.167,207.682,207.682,207.682
		c114.513,0,207.681-93.168,207.681-207.682C463.681,141.486,370.513,48.319,256,48.319z"/>
</g>
<g id="Camada_2">
</g>
<g>
	<path fill="#97A8C6" d="M410.502,128.619H106.426c-9.688,0-17.542,7.854-17.542,17.542v233.905c0,9.688,7.854,17.544,17.542,17.544
		h304.077c9.688,0,17.543-7.855,17.543-17.544V146.161C428.045,136.473,420.191,128.619,410.502,128.619z M416.351,380.065
		c0,3.229-2.619,5.85-5.849,5.85H106.426c-3.229,0-5.847-2.62-5.847-5.85V169.552c0-3.23,2.617-5.848,5.847-5.848h304.077
		c3.229,0,5.849,2.618,5.849,5.848V380.065z"/>
	<circle fill="#FF6464" cx="106.426" cy="146.161" r="5.848"/>
	<circle fill="#FFE182" cx="123.969" cy="146.161" r="5.848"/>
	<circle fill="#A5D76E" cx="141.511" cy="146.161" r="5.848"/>
	<g>
		<path fill="#EFF2FA" d="M170.75,152.009h-5.848c-3.229,0-5.847-2.619-5.847-5.849l0,0c0-3.229,2.618-5.847,5.847-5.847h5.848
			c3.229,0,5.849,2.618,5.849,5.847l0,0C176.598,149.39,173.979,152.009,170.75,152.009z"/>
		<path fill="#EFF2FA" d="M194.142,152.009h-5.849c-3.229,0-5.849-2.619-5.849-5.849l0,0c0-3.229,2.619-5.847,5.849-5.847h5.849
			c3.229,0,5.847,2.618,5.847,5.847l0,0C199.989,149.39,197.371,152.009,194.142,152.009z"/>
		<path fill="#EFF2FA" d="M387.112,152.009h-5.848c-3.228,0-5.848-2.619-5.848-5.849l0,0c0-3.229,2.62-5.847,5.848-5.847h5.848
			c3.23,0,5.85,2.618,5.85,5.847l0,0C392.961,149.39,390.342,152.009,387.112,152.009z"/>
		<path fill="#EFF2FA" d="M410.502,152.009h-5.848c-3.229,0-5.849-2.619-5.849-5.849l0,0c0-3.229,2.62-5.847,5.849-5.847h5.848
			c3.229,0,5.849,2.618,5.849,5.847l0,0C416.351,149.39,413.732,152.009,410.502,152.009z"/>
		<path fill="#EFF2FA" d="M357.873,152.009H217.531c-3.229,0-5.848-2.619-5.848-5.849l0,0c0-3.229,2.619-5.847,5.848-5.847h140.342
			c3.231,0,5.849,2.618,5.849,5.847l0,0C363.722,149.39,361.105,152.009,357.873,152.009z"/>
	</g>
	<g>
		<path fill="#FF6464" d="M199.989,251.419h-5.849c-2.608,0-4.905-1.73-5.621-4.24l-6.075-21.255l-6.075,21.255
			c-0.715,2.51-3.01,4.24-5.62,4.24h-5.85c-2.608,0-4.905-1.73-5.621-4.24l-11.696-40.934c-0.889-3.106,0.912-6.342,4.015-7.229
			c3.112-0.888,6.342,0.911,7.229,4.014l8.997,31.488l8.996-31.488c0.717-2.51,3.012-4.239,5.622-4.239
			c2.61,0,4.905,1.729,5.623,4.239l8.998,31.488l8.998-31.488c0.884-3.099,4.123-4.898,7.229-4.014
			c3.103,0.889,4.903,4.124,4.014,7.231l-11.695,40.933C204.894,249.688,202.597,251.419,199.989,251.419z"/>
		<path fill="#FF6464" d="M276.007,251.419h-5.847c-2.61,0-4.906-1.73-5.623-4.24l-6.071-21.255l-6.077,21.255
			c-0.715,2.51-3.01,4.24-5.62,4.24h-5.849c-2.608,0-4.905-1.73-5.621-4.24l-11.695-40.934c-0.889-3.106,0.911-6.342,4.014-7.229
			c3.112-0.888,6.341,0.911,7.229,4.014l8.999,31.488l8.995-31.488c0.717-2.51,3.012-4.239,5.622-4.239
			c2.612,0,4.905,1.729,5.622,4.239l8.998,31.488l8.998-31.488c0.884-3.099,4.123-4.898,7.229-4.014
			c3.104,0.889,4.903,4.124,4.015,7.231l-11.696,40.933C280.911,249.688,278.617,251.419,276.007,251.419z"/>
		<path fill="#FF6464" d="M352.027,251.419h-5.849c-2.608,0-4.906-1.73-5.623-4.24l-6.071-21.255l-6.075,21.255
			c-0.717,2.51-3.013,4.24-5.622,4.24h-5.847c-2.609,0-4.907-1.73-5.625-4.24l-11.693-40.934c-0.889-3.106,0.911-6.342,4.015-7.229
			c3.112-0.888,6.343,0.911,7.229,4.014l8.996,31.488l8.997-31.488c0.718-2.51,3.012-4.239,5.623-4.239
			c2.609,0,4.906,1.729,5.622,4.239l8.997,31.488l8.994-31.488c0.891-3.099,4.126-4.898,7.231-4.014
			c3.104,0.889,4.902,4.124,4.015,7.231l-11.695,40.933C356.932,249.688,354.636,251.419,352.027,251.419z"/>
	</g>
	<path fill="#28BEFF" d="M205.837,286.504h-64.326c-3.229,0-5.847-2.617-5.847-5.848l0,0c0-3.229,2.618-5.848,5.847-5.848h64.324
		c3.229,0,5.849,2.618,5.849,5.848l0,0C211.683,283.887,209.066,286.504,205.837,286.504z"/>
	<path fill="#D7DEED" d="M346.18,333.285H141.511c-3.229,0-5.847-2.618-5.847-5.849l0,0c0-3.228,2.618-5.847,5.847-5.847H346.18
		c3.229,0,5.848,2.619,5.848,5.847l0,0C352.027,330.667,349.408,333.285,346.18,333.285z"/>
	<path fill="#C3E678" d="M223.379,309.895h-81.868c-3.229,0-5.847-2.617-5.847-5.848l0,0c0-3.229,2.618-5.849,5.847-5.849h81.868
		c3.229,0,5.848,2.62,5.848,5.849l0,0C229.227,307.277,226.608,309.895,223.379,309.895z"/>
	<path fill="#28BEFF" d="M270.16,309.895h-23.391c-3.229,0-5.848-2.617-5.848-5.848l0,0c0-3.229,2.619-5.849,5.848-5.849h23.391
		c3.229,0,5.847,2.62,5.847,5.849l0,0C276.007,307.277,273.39,309.895,270.16,309.895z"/>
	<path fill="#D7DEED" d="M293.55,356.676H141.511c-3.229,0-5.847-2.621-5.847-5.85l0,0c0-3.228,2.618-5.847,5.847-5.847H293.55
		c3.229,0,5.847,2.619,5.847,5.847l0,0C299.397,354.059,296.78,356.676,293.55,356.676z"/>
</g>
</svg>
