<svg width="32" height="32" viewBox="0 0 32 32" fill="none" xmlns="http://www.w3.org/2000/svg">
<path fill-rule="evenodd" clip-rule="evenodd" d="M14.5543 1.50001C13.7183 1.66447 12.9294 1.97464 12.2712 2.43051L3.29261 8.64913C1.23327 10.0754 1.23327 12.3879 3.29261 13.8142L14.4019 21.5086C15.2845 22.1199 16.7154 22.1199 17.598 21.5086C18.4806 20.8973 18.4806 19.9063 17.598 19.295L6.48869 11.6006C6.1945 11.3969 6.1945 11.0665 6.48869 10.8627L14.5543 5.27643V1.50001ZM17.4455 5.27639L27.642 12.3385C28.5245 12.9498 29.9555 12.9498 30.838 12.3385C31.7206 11.7272 31.7206 10.7362 30.838 10.1249L19.7287 2.43051C19.0705 1.97463 18.2816 1.66446 17.4455 1.5V5.27639Z" fill="#EE3231"/>
<path fill-rule="evenodd" clip-rule="evenodd" d="M25.5113 20.1851C25.8055 20.3889 25.8055 20.7192 25.5113 20.923L17.4456 26.5093V30.2857C18.2816 30.1213 19.0706 29.8111 19.7288 29.3552L28.7074 23.1366C30.7667 21.7103 30.7667 19.3978 28.7074 17.9715L17.598 10.2771C16.7155 9.66585 15.2845 9.66585 14.402 10.2771C13.5194 10.8884 13.5194 11.8795 14.402 12.4907L25.5113 20.1851ZM14.5544 30.2857C13.7183 30.1213 12.9294 29.8111 12.2712 29.3552L1.16193 21.6609C0.279357 21.0496 0.279357 20.0585 1.16193 19.4472C2.0445 18.836 3.47543 18.836 4.35801 19.4472L14.5544 26.5093V30.2857Z" fill="#EE3231"/>
</svg>
