<?xml version="1.0" encoding="utf-8"?>
<!-- Generator: Adobe Illustrator 16.0.0, SVG Export Plug-In . SVG Version: 6.00 Build 0)  -->
<!DOCTYPE svg PUBLIC "-//W3C//DTD SVG 1.1//EN" "http://www.w3.org/Graphics/SVG/1.1/DTD/svg11.dtd">
<svg version="1.1" id="Layer_1" xmlns="http://www.w3.org/2000/svg" xmlns:xlink="http://www.w3.org/1999/xlink" x="0px" y="0px"
	 width="512px" height="512px" viewBox="0 0 512 512" enable-background="new 0 0 512 512" xml:space="preserve">
<g>
	<path fill="#EF5032" d="M262.006,498.006c-130.137,0-236.003-105.866-236.003-236c0-130.137,105.866-236.003,236.003-236.003
		c130.135,0,236,105.866,236,236.003C498.006,392.14,392.141,498.006,262.006,498.006z M262.006,54.322
		c-114.518,0-207.685,93.167-207.685,207.684c0,114.514,93.167,207.682,207.685,207.682c114.513,0,207.681-93.168,207.681-207.682
		C469.687,147.489,376.519,54.322,262.006,54.322z"/>
</g>
<path fill="#EF5032" d="M463.286,267.463c10.005,10.004,10.007,26.227,0,36.232L282.119,484.866
	c-10.008,10.007-26.23,10.007-36.236,0L64.715,303.695c-10.006-10.006-10.006-26.227,0-36.232l181.169-181.17
	c10.006-10.006,26.229-10.006,36.236,0L463.286,267.463z"/>
<g>
	<path fill="#FFFFFF" d="M186.549,152.046c12.124,11.447,24.092,23.064,36.457,34.242c4.146,3.752,3.311,7.372,2.521,11.985
		c-2.482,14.48,1.649,27.034,14.271,35.042c6.184,3.926,7.564,8.313,7.518,14.93c-0.24,34.226-0.294,68.454,0.015,102.678
		c0.064,7.048-1.021,11.817-7.97,15.604c-8.578,4.68-13.145,13.035-14.22,22.988c-1.853,17.168,6.872,32.05,22.33,38.007
		c16.911,6.521,32.915,0.928,45.474-15.892c2.486-14.634,2.386-28.837-10.782-38.779c-6.781-5.121-8.203-11.34-8.158-19.08
		c0.188-31.39,0.055-62.778,0.104-94.168c0.007-4.016-0.674-8.223,2.197-11.731c0.635-4.14,0.664-8.677,6.377-2.997
		c12.656,12.592,25.576,24.917,38.518,37.212c3.306,3.142,3.718,6.043,2.802,10.688c-3.982,20.236,6.588,37.543,25.094,42.447
		c18.99,5.034,37.41-4.838,44.535-23.859c6.834-24.988-12.441-48.03-38.425-45.426c-4.383,0.439-7.403,0.561-10.784-2.83
		c-14.105-14.136-28.562-27.927-42.859-41.877c-2.879-2.802-5.754-5.235-4.807-10.331c4.801-25.873-19.322-43.479-39.164-41.107
		c-5.256,0.628-9.3-0.021-13.156-3.951c-11.975-12.217-24.229-24.161-36.375-36.211c-1.266-1.064-2.533-2.128-3.8-3.192
		l-21.705,21.705C184.168,148.983,185.422,150.41,186.549,152.046z"/>
</g>
<g>
	<path fill="#EB5D4F" d="M256,492C125.866,492,20,386.134,20,256S125.866,20,256,20c130.135,0,236,105.866,236,236
		S386.135,492,256,492z M256,48.319C141.486,48.319,48.319,141.486,48.319,256c0,114.514,93.167,207.682,207.682,207.682
		c114.513,0,207.681-93.168,207.681-207.682C463.681,141.486,370.513,48.319,256,48.319z"/>
</g>
</svg>
