<?xml version="1.0" encoding="utf-8"?>
<!-- Generator: Adobe Illustrator 16.0.0, SVG Export Plug-In . SVG Version: 6.00 Build 0)  -->
<!DOCTYPE svg PUBLIC "-//W3C//DTD SVG 1.1//EN" "http://www.w3.org/Graphics/SVG/1.1/DTD/svg11.dtd">
<svg version="1.1" id="Layer_1" xmlns="http://www.w3.org/2000/svg" xmlns:xlink="http://www.w3.org/1999/xlink" x="0px" y="0px"
	 width="512px" height="512px" viewBox="0 0 512 512" enable-background="new 0 0 512 512" xml:space="preserve">
<g>
	<path fill="#466610" d="M262.006,498.006c-130.137,0-236.003-105.866-236.003-236c0-130.137,105.866-236.003,236.003-236.003
		c130.135,0,236,105.866,236,236.003C498.006,392.14,392.141,498.006,262.006,498.006z M262.006,54.322
		c-114.518,0-207.685,93.167-207.685,207.684c0,114.514,93.167,207.682,207.685,207.682c114.513,0,207.681-93.168,207.681-207.682
		C469.687,147.489,376.519,54.322,262.006,54.322z"/>
</g>
<g>
	<path fill="#5D861F" d="M256,492C125.866,492,20,386.134,20,256S125.866,20,256,20c130.135,0,236,105.866,236,236
		S386.135,492,256,492z M256,48.319C141.486,48.319,48.319,141.486,48.319,256c0,114.514,93.167,207.682,207.682,207.682
		c114.513,0,207.681-93.168,207.681-207.682C463.681,141.486,370.513,48.319,256,48.319z"/>
</g>
<path fill="#5D861F" d="M232.259,440.997c-28.664-17.687-57.764-34.613-87.594-50.274c-12.298-7.568-24.647-15.057-36.883-22.725
	c-10.482-6.568-17.954-15.325-19.415-28.165c0.155-1.228,0.31-2.458,0.464-3.688c-0.001-55.482-0.002-110.963-0.003-166.444
	c3.146-12.047,11.407-19.841,21.71-25.825c33.168-19.265,66.37-38.471,99.573-57.672c9.435-5.457,18.808-11.035,28.409-16.181
	c14.727-7.892,29.207-8.458,44.26,0.341c39.395,23.028,79.181,45.386,118.684,68.229c7.707,4.457,14.843,9.905,22.235,14.896
	c2.102,2.817,4.204,5.634,6.307,8.449c0.107,1.036,0.213,2.071,0.316,3.108c0.028,59.756,0.06,119.511,0.088,179.265
	c-0.646,9.922-6.705,16.511-14.449,21.285c-44.998,27.733-91.118,53.553-137.08,79.641c-12.18,6.913-24.367,7.37-36.677,0.143
	C239.103,443.557,235.586,442.44,232.259,440.997z M414.201,254.435c0.055-21.48-0.951-43.035,0.509-64.421
	c1.114-16.311-5.478-25.725-19-33.327c-40.902-22.987-81.477-46.561-122.023-70.17c-8.607-5.014-16.543-5.32-25.2-0.501
	c-43.6,24.268-86.989,48.889-129.638,74.805c-8.772,5.331-12.67,12.584-12.605,22.917c0.283,46.601,0.948,93.22-0.141,139.794
	c-0.401,17.161,6.413,26.62,20.575,34.497c36.958,20.56,73.757,41.469,109.809,63.557c16.263,9.964,30.604,12.468,46.27,0.314
	c4.395-3.408,9.671-5.678,14.543-8.467c5.168-2.927,10.369-5.797,15.498-8.785c28.235-16.449,56.364-33.082,84.719-49.323
	c11.657-6.679,17.689-15.327,17.096-29.573C413.62,302.016,414.252,278.212,414.201,254.435z"/>
<path fill="#8FCD33" d="M297.298,413.434c-4.872,2.789-10.148,5.059-14.543,8.467c-15.665,12.152-30.006,9.648-46.27-0.314
	c-36.052-22.088-72.852-42.997-109.809-63.557c-14.163-7.877-20.977-17.336-20.575-34.497c1.089-46.574,0.424-93.193,0.141-139.794
	c-0.063-10.333,3.833-17.586,12.605-22.917c42.648-25.917,86.039-50.538,129.638-74.805c8.657-4.819,16.593-4.513,25.2,0.501
	c40.548,23.609,81.121,47.183,122.023,70.17c13.522,7.602,20.114,17.016,19,33.327c-1.461,21.386-0.454,42.941-0.509,64.425
	c-2.722-0.471-4.757-2.099-6.783-3.852c-14.226-12.281-28.46-24.552-42.77-36.734c-2.355-2.007-4.443-6.034-8.139-3.998
	c-2.901,1.595-1.539,5.425-1.543,8.276c-0.021,34.671,0.073,69.337,0.032,104.008c-0.007,4.537,0.97,9.319-2.093,13.418
	c1.318-43.3,0.642-86.602,0.126-129.901c-0.065-5.542-3.39-8.206-7.529-10.587c-25.102-14.435-50.239-28.805-75.258-43.388
	c-5.115-2.982-9.733-3.129-14.893-0.336c-26.322,14.261-52.262,29.178-77.923,44.6c-4.649,2.794-6.625,6.272-6.654,11.153
	c-0.233,40.668-0.373,81.334-0.552,122.002c-0.022,5.354,2.402,8.012,7.926,7.375c1.661,3.934,5.238,5.768,8.617,7.782
	c34.723,20.718,69.449,41.429,104.204,62.095C293.873,408.078,296.599,409.811,297.298,413.434z"/>
<path fill="#7BB029" d="M297.298,413.434c-0.699-3.623-3.425-5.354-6.326-7.08c-34.754-20.668-69.479-41.377-104.204-62.096
	c-3.379-2.016-6.956-3.85-8.616-7.783c14.337-8.133,28.559-16.48,43.063-24.305c7.507-4.05,11.011-9.388,10.73-18.186
	c-0.511-16.184-0.108-32.397-0.119-48.598c-0.006-4.386,0.517-8.308,4.129-11.638c15.788-14.555,26.311-15.771,44.781-4.714
	c1.411,0.844,2.669,2.015,4.162,2.643c5.356,2.256,6.696,6.266,6.679,11.859c-0.06,17.515,0.448,35.037,0.646,52.56
	c0.073,6.44,2.256,11.098,8.353,14.4c13.908,7.533,27.521,15.621,41.146,23.665c3.664,2.16,7.167,3.246,11.188,1.396
	c3.063-4.099,2.086-8.881,2.094-13.418c0.041-34.67-0.056-69.336-0.033-104.008c0.004-2.851-1.358-6.681,1.543-8.276
	c3.694-2.036,5.782,1.991,8.139,3.998c14.31,12.182,28.544,24.453,42.77,36.734c2.026,1.753,4.063,3.381,6.783,3.852
	c0.051,23.773-0.581,47.577,0.408,71.312c0.595,14.246-5.438,22.896-17.096,29.573c-28.354,16.24-56.482,32.874-84.719,49.322
	C307.666,407.637,302.466,410.507,297.298,413.434z"/>
<path fill="#FCFDFA" d="M352.907,335.559c-4.021,1.851-7.522,0.765-11.188-1.396c-13.626-8.044-27.237-16.132-41.146-23.665
	c-6.097-3.304-8.278-7.96-8.353-14.401c-0.197-17.521-0.705-35.044-0.646-52.559c0.019-5.593-1.321-9.603-6.679-11.859
	c-1.493-0.628-2.751-1.799-4.162-2.643c-18.472-11.057-28.993-9.841-44.781,4.714c-3.612,3.33-4.135,7.251-4.129,11.638
	c0.011,16.201-0.393,32.416,0.119,48.597c0.28,8.799-3.224,14.137-10.73,18.187c-14.503,7.823-28.725,16.172-43.063,24.306
	c-5.524,0.638-7.95-2.021-7.928-7.375c0.179-40.668,0.318-81.333,0.552-122.002c0.03-4.881,2.005-8.359,6.654-11.153
	c25.662-15.422,51.601-30.339,77.923-44.6c5.158-2.793,9.776-2.646,14.893,0.336c25.019,14.583,50.156,28.953,75.258,43.388
	c4.141,2.381,7.464,5.045,7.529,10.587C353.549,248.956,354.227,292.258,352.907,335.559z"/>
</svg>
