<?xml version="1.0" encoding="utf-8"?>
<!-- Generator: Adobe Illustrator 16.0.0, SVG Export Plug-In . SVG Version: 6.00 Build 0)  -->
<!DOCTYPE svg PUBLIC "-//W3C//DTD SVG 1.1//EN" "http://www.w3.org/Graphics/SVG/1.1/DTD/svg11.dtd">
<svg version="1.1" id="Camada_1" xmlns="http://www.w3.org/2000/svg" xmlns:xlink="http://www.w3.org/1999/xlink" x="0px" y="0px"
	 width="512px" height="512px" viewBox="0 0 512 512" enable-background="new 0 0 512 512" xml:space="preserve">
<g>
	<rect x="116.935" y="189.453" fill-rule="evenodd" clip-rule="evenodd" fill="#EA796E" width="295.333" height="159.71"/>
	<path fill-rule="evenodd" clip-rule="evenodd" fill="#B7B6B6" d="M108.161,374.191c16.394,1.977,32.853,0.549,49.277,0.849
		c21.197,0.387,42.4,0.453,63.6,0.653c0.609,1.359,1.275,1.558,2.026,0.104c0.613-0.04,1.226-0.081,1.839-0.122
		c0.331,8.134,4.774,11.734,12.698,11.709c15.701-0.048,31.416-0.334,47.104,0.129c7.879,0.23,13.172-2.451,16.229-9.632
		c0.68-0.727,1.354-1.454,2.031-2.182c37.518-1.247,75.043-0.568,112.566-0.342c10.654-1.669,21.395-1.177,32.115-1.271
		c6.213-0.055,7.602,2.473,5.662,8.331c-3.818,11.522-13.604,18.259-28.023,18.271c-46.26,0.045-92.521,0.018-138.775,0.018
		c-62.418,0-124.836,0.017-187.254-0.011c-14.668-0.007-24.414-6.402-28.411-17.773c-2.164-6.155-0.873-8.972,5.954-8.859
		C87.249,374.239,97.707,374.161,108.161,374.191z"/>
	<path fill-rule="evenodd" clip-rule="evenodd" fill="#FEFEFD" d="M300.934,377.882c0.039-0.739,0.076-1.475,0.115-2.214
		c0.639,0.01,1.277,0.021,1.916,0.032C302.287,376.428,301.614,377.155,300.934,377.882z"/>
	<path fill-rule="evenodd" clip-rule="evenodd" fill="#FEFEFD" d="M223.065,375.798c-0.751,1.453-1.417,1.255-2.026-0.104
		C221.714,375.728,222.388,375.764,223.065,375.798z"/>
	<polygon fill-rule="evenodd" clip-rule="evenodd" fill="#E75849" points="412.268,234.713 364.268,248.046 313.602,299.549 
		262.977,299.549 209.602,268.046 159.602,299.549 116.935,315.38 116.935,369.163 412.268,369.163 	"/>
	<g>
		<polygon fill="#153C5A" points="117.979,318.192 115.892,312.567 158.266,296.845 209.551,264.532 263.795,296.549 
			312.345,296.549 362.692,245.371 411.465,231.822 413.071,237.604 365.844,250.722 314.859,302.549 262.156,302.549 
			209.653,271.56 160.937,302.253 		"/>
	</g>
	<path fill-rule="evenodd" clip-rule="evenodd" fill="#103857" d="M417.024,232.236c-0.16-11.3-0.26-22.6-0.498-33.897
		c-0.242-11.349-4.826-15.888-16.205-16.07c-12.256-0.195-24.508-0.273-36.764-0.403c-6.191-0.006-12.383-0.014-18.574-0.021
		c-57.764-0.003-115.529-0.007-173.297-0.011c-18.211,0.24-36.423,0.477-54.635,0.717c-1.913,1.121-3.823,2.245-5.735,3.368
		c-0.773,1.268-1.548,2.538-2.321,3.805c-0.417,3.886-0.833,7.774-1.249,11.662c0.401,0.618,0.31,1.155-0.272,1.608
		c0.022,0.583,0.046,1.165,0.068,1.748c1.42,36.164,0.646,72.334,0.39,108.504c0.078,20.314,0.155,40.628,0.231,60.945
		c16.394,1.977,32.853,0.549,49.277,0.849c21.197,0.387,42.4,0.453,63.6,0.653c0.675,0.034,1.35,0.07,2.026,0.104
		c0.613-0.04,1.226-0.081,1.839-0.122c25.382-1.208,50.763-1.193,76.144-0.008c0.641,0.01,1.279,0.021,1.918,0.032
		c37.518-1.247,75.043-0.568,112.566-0.342c1.842-3.596,0.998-7.462,1.014-11.203c0.186-37.941,0.287-75.88,0.412-113.821
		C416.979,244.302,417.002,238.269,417.024,232.236z M403.701,215.663v11.608c0.027,0.34,0.048,0.682,0.078,1.021l-0.078,0.021
		v28.847l0.09-0.02c-0.042,3.508-0.059,7.016-0.09,10.523v78.246c0.021,2.731,0.033,5.464,0.057,8.196
		c0.051,6.081-1.42,8.213-7.846,8.198c-89.043-0.19-178.089-0.194-267.134,0.008c-6.364,0.015-8.234-1.884-7.983-8.089
		c0.095-2.357,0.15-4.716,0.186-7.075h-0.208V215.663h0.126c-0.022-4.171-0.033-8.343-0.068-12.515
		c-0.054-6.333,1.963-7.905,8.134-7.892c88.726,0.193,177.453,0.194,266.179-0.001c6.465-0.016,9.102,1.442,8.609,8.345
		c-0.287,4.002-0.46,8.034-0.479,12.063H403.701z"/>
	<circle fill="#153C5A" cx="163.018" cy="297.08" r="8.75"/>
	<circle fill="#153C5A" cx="209.768" cy="268.246" r="8.75"/>
	<circle fill="#153C5A" cx="262.248" cy="299.579" r="8.75"/>
	<circle fill="#153C5A" cx="314.248" cy="299.579" r="8.75"/>
	<circle fill="#153C5A" cx="362.936" cy="248.163" r="8.75"/>
</g>
<g>
	<path fill="#0A283A" d="M262.006,498.006c-130.137,0-236.003-105.866-236.003-236c0-130.137,105.866-236.003,236.003-236.003
		c130.135,0,236,105.866,236,236.003C498.006,392.14,392.141,498.006,262.006,498.006z M262.006,54.322
		c-114.518,0-207.685,93.167-207.685,207.684c0,114.514,93.167,207.682,207.685,207.682c114.513,0,207.681-93.168,207.681-207.682
		C469.687,147.489,376.519,54.322,262.006,54.322z"/>
</g>
<g>
	<path fill="#153C5A" d="M256,492C125.866,492,20,386.134,20,256S125.866,20,256,20c130.135,0,236,105.866,236,236
		S386.135,492,256,492z M256,48.319C141.486,48.319,48.319,141.486,48.319,256c0,114.514,93.167,207.682,207.682,207.682
		c114.513,0,207.681-93.168,207.681-207.682C463.681,141.486,370.513,48.319,256,48.319z"/>
</g>
<g id="Camada_2">
</g>
<g>
	<path fill-rule="evenodd" clip-rule="evenodd" fill="#153C5A" d="M211.401,95.619c36.978,10.059,46.166,40.87,41.134,62.87
		c-1.979,8.641-6.591,15.838-11.274,23.076c-23.477,20.655-45.605,22.686-70.49,6.476c-3.168-3.082-6.336-6.167-9.504-9.25
		c-12.733-18.302-15.012-37.646-3.99-57.283C169.058,100.516,188.307,93.696,211.401,95.619z M229.481,173.993
		c15.113-15.265,14.995-39.829-0.264-54.793c-14.758-14.475-39.253-14.301-54.126,0.386c-15.228,15.033-15.369,39.667-0.316,54.786
		C189.815,189.478,214.317,189.309,229.481,173.993z"/>
	<path fill-rule="evenodd" clip-rule="evenodd" fill="#153C5A" d="M158.533,200.368c3.536,2.917,3.521,5.339,0.01,8.755
		c-13.553,13.197-26.896,26.608-40.054,40.198c-3.471,3.585-5.421,2.913-8.759-0.175c-14.578-13.48-14.684-13.366-1.01-27.092
		c10.307-10.345,20.814-20.501,30.815-31.135c3.746-3.982,6.413-3.524,9.665-0.079C152.311,194.018,155.422,197.194,158.533,200.368
		z"/>
	<path fill-rule="evenodd" clip-rule="evenodd" fill="#3C6C80" d="M158.533,200.368c-3.112-3.174-6.222-6.351-9.333-9.527
		c4.02-4.015,8.042-8.033,12.066-12.051c3.167,3.084,6.335,6.168,9.504,9.25C166.693,192.149,162.612,196.26,158.533,200.368z"/>
	<path fill-rule="evenodd" clip-rule="evenodd" fill="#85CACA" d="M229.481,173.993c-15.164,15.316-39.666,15.485-54.706,0.378
		c-15.053-15.119-14.912-39.753,0.316-54.786c14.874-14.687,39.369-14.86,54.126-0.386
		C244.475,134.164,244.594,158.728,229.481,173.993z M184.688,125.175c-3.417,2.846-5.316,6.608-2.637,10.401
		c2.465,3.491,5.971,2.635,9.568,0.294c6.901-4.488,14.123-5.479,21.037,0.299c3.379,2.827,6.68,2.916,9.465-0.591
		c2.601-3.273,0.89-6.042-1.489-8.76C212.14,117.117,194.017,116.233,184.688,125.175z"/>
</g>
<g>
	<path fill-rule="evenodd" clip-rule="evenodd" fill="#153C5A" d="M400.235,331.78c-5.949,0.463-7.869,3.773-6.905,9.411
		c0.9,5.271-0.555,7.927-6.858,7.942c-6.442,0.018-7.18-2.883-6.902-8.058c0.185-3.439,1.425-7.118-4.32-8.848
		c-6.186-1.864-7.204,2.101-8.911,5.55c-2.314,4.682-4.469,6.389-9.875,3.225c-5.466-3.197-4.91-5.908-1.885-10.162
		c2.275-3.193,4.743-5.999,0.276-10.428c-4.732-4.691-7.646-1.14-10.449,0.938c-5.008,3.709-7.127,1.888-10.02-2.692
		c-3.227-5.112-1.311-6.944,3.146-9.124c3.3-1.616,7.812-2.403,6.068-8.707c-1.626-5.877-5.36-5.238-9.315-4.902
		c-5.263,0.449-7.876-0.613-7.928-6.961c-0.055-6.766,3.342-7.098,8.227-6.715c4.242,0.332,7.709,0.258,9.113-5.342
		c1.45-5.781-2.758-6.529-5.836-8.088c-4.611-2.333-6.325-4.318-3.248-9.775c3.248-5.764,6.136-4.664,10.251-1.866
		c3.324,2.261,6.036,4.551,10.408,0.179c4.746-4.742,0.936-7.5-0.994-10.428c-2.746-4.167-3.34-6.656,1.833-9.511
		c4.874-2.693,7.646-2.671,10.069,2.762c1.561,3.503,2.876,7.497,8.933,5.754c6.12-1.761,4.707-5.99,4.438-9.687
		c-0.391-5.353,1.383-7.283,6.866-7.205c5.155,0.072,7.624,1.313,7.047,6.989c-0.417,4.114-1.351,8.488,5.101,10.069
		c6.292,1.54,7.153-3.161,8.629-6.393c2.456-5.377,5.11-4.824,9.512-2.412c4.707,2.58,5.692,4.775,2.312,9.367
		c-2.263,3.074-5.812,6.239-0.715,11.125c4.821,4.619,7.604,1.086,10.455-0.984c5.02-3.649,7.154-1.69,10.08,2.771
		c3.476,5.293,0.646,6.874-3.304,9.083c-3.214,1.799-7.757,2.371-5.921,8.76c1.744,6.057,5.672,5.058,9.459,4.74
		c5.757-0.485,7.629,1.553,7.635,7.408c0.005,6.072-2.957,7.139-7.638,6.239c-7.01-1.345-9.351,2.444-10.087,8.392
		c-1.174,0.174-2.348,0.346-3.521,0.521C409.69,305.669,401.975,313.944,400.235,331.78z M413.045,288.984
		c-0.048-14.641-11.747-26.399-26.346-26.483c-14.796-0.082-26.999,12.303-26.712,27.109c0.279,14.541,12.227,26.051,26.895,25.912
		C401.577,315.382,413.094,303.702,413.045,288.984z"/>
	<path fill-rule="evenodd" clip-rule="evenodd" fill="#EE8E22" d="M425.459,304.717c1.174-0.175,2.348-0.347,3.521-0.521
		c23.812,3.846,24.706,22.003,18.434,41.967c-2.148,6.838-7.705,12.484-8.551,20.057c-3.938-0.151-7.872-0.305-11.81-0.459
		c-1.208-3.617-1.702-7.293-1.674-11.146C425.511,337.983,425.448,321.349,425.459,304.717z"/>
	<path fill-rule="evenodd" clip-rule="evenodd" fill="#F3B404" d="M425.459,304.717c-0.011,16.632,0.052,33.267-0.079,49.898
		c-0.028,3.853,0.466,7.528,1.678,11.146c-4.36,0.148-8.717,0.297-13.077,0.443c-1.188-8.91-7.233-15.667-10.449-23.67
		c-1.393-3.467-2.216-7.162-3.297-10.754C401.975,313.944,409.69,305.669,425.459,304.717z"/>
	<path fill-rule="evenodd" clip-rule="evenodd" fill="#C3C4C2" d="M439.261,369.579c0.079,4.678,0.059,9.359,0.266,14.029
		c0.328,7.426-4.811,9.338-10.458,9.576c-11.218,0.473-15.826-2.564-15.999-9.75c-0.11-4.668,0.187-9.348,0.301-14.021
		C421.993,370.546,430.623,370.259,439.261,369.579z"/>
	<path fill-rule="evenodd" clip-rule="evenodd" fill="#153C5A" d="M439.257,369.579c-8.634,0.68-17.264,0.967-25.887-0.166
		c0.203-1.069,0.407-2.138,0.61-3.207c4.36-0.148,8.717-0.297,13.077-0.445c3.934,0.154,7.868,0.308,11.806,0.459
		C438.994,367.338,439.126,368.46,439.257,369.579z"/>
	<path fill-rule="evenodd" clip-rule="evenodd" fill="#EBEBEB" d="M413.045,288.984c0.049,14.718-11.468,26.397-26.163,26.538
		c-14.668,0.139-26.615-11.371-26.895-25.912c-0.287-14.807,11.916-27.191,26.712-27.109
		C401.298,262.585,412.997,274.344,413.045,288.984z M398.34,288.696c-0.27-6.412-5.827-11.484-12.396-10.99
		c-6.944,0.52-10.65,4.674-10.973,11.424c-0.306,6.371,5.49,11.779,11.835,11.637C393.13,300.623,398.595,294.901,398.34,288.696z"
		/>
	<path fill-rule="evenodd" clip-rule="evenodd" fill="#3C6C80" d="M398.34,288.696c0.255,6.205-5.21,11.927-11.534,12.07
		c-6.345,0.143-12.141-5.266-11.835-11.637c0.322-6.75,4.028-10.904,10.973-11.424C392.513,277.212,398.071,282.284,398.34,288.696z
		"/>
</g>
</svg>
