<?xml version="1.0" encoding="utf-8"?>
<!-- Generator: Adobe Illustrator 16.0.0, SVG Export Plug-In . SVG Version: 6.00 Build 0)  -->
<!DOCTYPE svg PUBLIC "-//W3C//DTD SVG 1.1//EN" "http://www.w3.org/Graphics/SVG/1.1/DTD/svg11.dtd">
<svg version="1.1" id="Layer_1" xmlns="http://www.w3.org/2000/svg" xmlns:xlink="http://www.w3.org/1999/xlink" x="0px" y="0px"
	 width="512px" height="512px" viewBox="0 0 512 512" enable-background="new 0 0 512 512" xml:space="preserve">
<g>
	<path fill="#565656" d="M262.006,498.006c-130.137,0-236.003-105.866-236.003-236c0-130.137,105.866-236.003,236.003-236.003
		c130.135,0,236,105.866,236,236.003C498.006,392.14,392.141,498.006,262.006,498.006z M262.006,54.322
		c-114.518,0-207.685,93.167-207.685,207.684c0,114.514,93.167,207.682,207.685,207.682c114.513,0,207.681-93.168,207.681-207.682
		C469.687,147.489,376.519,54.322,262.006,54.322z"/>
</g>
<path fill="#6B6A6A" d="M434.561,309.41c5.58,11.874,0.745,26.097-11.13,31.678L208.406,442.14
	c-11.876,5.582-25.967,0.255-31.548-11.62L75.805,215.494c-5.582-11.876-0.753-26.259,11.122-31.84L301.952,82.601
	c11.875-5.581,25.976-0.092,31.557,11.784L434.561,309.41z"/>
<path fill="#9E9D9D" d="M437.486,299.423c5.58,11.874,0.746,26.098-11.129,31.678L211.331,432.153
	c-11.876,5.581-25.967,0.254-31.548-11.622L78.73,205.506c-5.581-11.876-0.753-26.259,11.122-31.84L304.877,72.614
	c11.875-5.581,25.975-0.092,31.557,11.785L437.486,299.423z"/>
<g enable-background="new    ">
	<path fill="#219302" d="M150.779,230.9c2.538-0.822,5.199-1.248,7.985-1.281c0.396-0.557,0.804-1.027,1.222-1.408
		c0.418-0.382,0.863-0.684,1.335-0.906c1.551-0.729,3.059-0.789,4.519-0.178c1.461,0.611,2.778,2.165,3.951,4.661l1.569,3.339
		c1.174,2.497,1.529,4.502,1.067,6.016c-0.461,1.515-1.452,2.629-2.97,3.343c-1.383,0.65-2.769,0.745-4.159,0.286
		c-1.39-0.458-2.581-1.525-3.574-3.2c-3.332-0.782-6.82-0.316-10.464,1.396c-3.812,1.792-6.282,3.787-7.411,5.984
		c-1.129,2.2-1.305,4.125-0.528,5.778c0.603,1.283,1.68,2.176,3.236,2.681c1.555,0.504,4.22,0.303,7.994-0.606l7.571-1.766
		c6.357-1.546,11.355-1.733,14.996-0.561c4.717,1.45,8.233,4.637,10.548,9.562c2.03,4.318,2.323,8.865,0.881,13.64
		c-1.441,4.776-4.709,9.021-9.801,12.73l4.138,8.805c1.173,2.497,1.529,4.503,1.066,6.017c-0.461,1.515-1.468,2.637-3.02,3.365
		c-1.518,0.714-3.008,0.766-4.469,0.154c-1.46-0.61-2.777-2.164-3.951-4.661l-4.138-8.805c-2.969,0.696-6.087,1.07-9.356,1.124
		c-0.88,1.896-1.945,3.138-3.193,3.724c-1.653,0.776-3.205,0.869-4.658,0.274c-1.453-0.594-2.766-2.139-3.939-4.636l-3.067-6.527
		c-1.173-2.496-1.529-4.502-1.067-6.017c0.462-1.514,1.468-2.636,3.021-3.365c1.248-0.587,2.453-0.74,3.613-0.462
		c1.161,0.279,2.255,1.031,3.285,2.256c1.028,1.226,2.046,2.033,3.054,2.425c1.52,0.605,3.487,0.781,5.903,0.531
		c2.416-0.249,4.719-0.89,6.912-1.921c3.846-1.807,6.583-4.308,8.211-7.503c1.102-2.124,1.162-4.231,0.179-6.324
		c-0.808-1.72-2.048-2.867-3.718-3.441c-1.655-0.54-4.495-0.317-8.52,0.668l-8.53,2.094c-6.006,1.504-10.965,1.426-14.876-0.238
		c-3.912-1.661-6.81-4.5-8.697-8.516c-1.87-3.98-2.152-8.171-0.845-12.576c1.308-4.403,4.082-8.096,8.323-11.078l-1.332-2.833
		c-1.157-2.462-1.505-4.451-1.043-5.966s1.469-2.636,3.021-3.366c1.518-0.713,3.008-0.765,4.468-0.154
		c1.462,0.611,2.771,2.147,3.928,4.61L150.779,230.9z"/>
</g>
<g>
	<path fill="#219302" d="M260.766,267.927l-42.537,19.99c-2.498,1.174-4.499,1.537-6.005,1.093
		c-1.507-0.445-2.625-1.444-3.354-2.997c-0.729-1.552-0.789-3.057-0.177-4.519c0.61-1.461,2.164-2.776,4.662-3.95l42.537-19.991
		c2.462-1.157,4.452-1.506,5.965-1.043c1.515,0.462,2.637,1.468,3.366,3.021c0.714,1.518,0.773,3.005,0.179,4.457
		C264.807,265.44,263.263,266.753,260.766,267.927z"/>
</g>
<path fill="#7F7E7E" d="M304.877,72.614L89.852,173.666c-11.875,5.581-16.703,19.964-11.122,31.84l7.3,15.532L343.732,99.93
	l-7.299-15.531C330.851,72.522,316.752,67.033,304.877,72.614z"/>
<circle fill="#C13E3E" cx="98.616" cy="192.336" r="10.427"/>
<circle fill="#C6D848" cx="125.048" cy="179.914" r="10.427"/>
<circle fill="#40BF55" cx="151.866" cy="167.31" r="10.427"/>
<g>
	<path fill="#7F7E7E" d="M256,492C125.866,492,20,386.134,20,256S125.866,20,256,20c130.135,0,236,105.866,236,236
		S386.135,492,256,492z M256,48.319C141.486,48.319,48.319,141.486,48.319,256c0,114.514,93.167,207.682,207.682,207.682
		c114.513,0,207.681-93.168,207.681-207.682C463.681,141.486,370.513,48.319,256,48.319z"/>
</g>
</svg>
