<?xml version="1.0" encoding="utf-8"?>
<!-- Generator: Adobe Illustrator 16.0.0, SVG Export Plug-In . SVG Version: 6.00 Build 0)  -->
<!DOCTYPE svg PUBLIC "-//W3C//DTD SVG 1.1//EN" "http://www.w3.org/Graphics/SVG/1.1/DTD/svg11.dtd">
<svg version="1.1" id="Camada_1" xmlns="http://www.w3.org/2000/svg" xmlns:xlink="http://www.w3.org/1999/xlink" x="0px" y="0px"
	 width="512px" height="512px" viewBox="0 0 512 512" enable-background="new 0 0 512 512" xml:space="preserve">
<g>
	<path fill="#9E2020" d="M262.006,498.006c-130.137,0-236.003-105.866-236.003-236c0-130.137,105.866-236.003,236.003-236.003
		c130.135,0,236,105.866,236,236.003C498.006,392.14,392.141,498.006,262.006,498.006z M262.006,54.322
		c-114.518,0-207.685,93.167-207.685,207.684c0,114.514,93.167,207.682,207.685,207.682c114.513,0,207.681-93.168,207.681-207.682
		C469.687,147.489,376.519,54.322,262.006,54.322z"/>
</g>
<g>
	<path fill="#CB3837" d="M256,492C125.866,492,20,386.134,20,256S125.866,20,256,20c130.135,0,236,105.866,236,236
		S386.135,492,256,492z M256,48.319C141.486,48.319,48.319,141.486,48.319,256c0,114.514,93.167,207.682,207.682,207.682
		c114.513,0,207.681-93.168,207.681-207.682C463.681,141.486,370.513,48.319,256,48.319z"/>
</g>
<polygon fill="#CB3837" points="36.915,184.299 36.915,330.355 158.63,330.355 158.63,354.699 256.001,354.699 256.001,330.355 
	475.085,330.355 475.085,184.299 "/>
<path fill="#FFFFFF" d="M72.935,303.823"/>
<path fill="#FFFFFF" d="M72.935,303.823"/>
<polygon fill="#FFFFFF" points="61.257,306.013 61.257,208.642 158.63,208.642 158.63,306.013 134.286,306.013 134.286,232.985 
	109.943,232.985 109.943,306.013 "/>
<path fill="#FFFFFF" d="M182.971,208.642v121.714h48.688v-24.343h48.686v-97.371H182.971z M256.001,281.669h-24.344v-48.685h24.344
	V281.669z"/>
<polygon fill="#FFFFFF" points="304.686,208.642 304.686,306.013 353.37,306.013 353.37,232.985 377.714,232.985 377.714,306.013 
	402.056,306.013 402.056,232.985 426.402,232.985 426.402,306.013 450.744,306.013 450.744,208.642 "/>
</svg>
