<?xml version="1.0" encoding="utf-8"?>
<!-- Generator: Adobe Illustrator 16.0.0, SVG Export Plug-In . SVG Version: 6.00 Build 0)  -->
<!DOCTYPE svg PUBLIC "-//W3C//DTD SVG 1.1//EN" "http://www.w3.org/Graphics/SVG/1.1/DTD/svg11.dtd">
<svg version="1.1" id="Camada_1" xmlns="http://www.w3.org/2000/svg" xmlns:xlink="http://www.w3.org/1999/xlink" x="0px" y="0px"
	 width="512px" height="512px" viewBox="0 0 512 512" enable-background="new 0 0 512 512" xml:space="preserve">
<g>
	<path fill="#68214B" d="M262.006,498.006c-130.137,0-236.003-105.866-236.003-236c0-130.137,105.866-236.003,236.003-236.003
		c130.135,0,236,105.866,236,236.003C498.006,392.14,392.141,498.006,262.006,498.006z M262.006,54.322
		c-114.518,0-207.685,93.167-207.685,207.684c0,114.514,93.167,207.682,207.685,207.682c114.513,0,207.681-93.168,207.681-207.682
		C469.687,147.489,376.519,54.322,262.006,54.322z"/>
</g>
<g>
	<path fill="#A54278" d="M256,492C125.866,492,20,386.134,20,256S125.866,20,256,20c130.135,0,236,105.866,236,236
		S386.135,492,256,492z M256,48.319C141.486,48.319,48.319,141.486,48.319,256c0,114.514,93.167,207.682,207.682,207.682
		c114.513,0,207.681-93.168,207.681-207.682C463.681,141.486,370.513,48.319,256,48.319z"/>
</g>
<path fill="#CF649A" d="M440.395,269.997c-16.676,0.105-31.115,4.495-43.228,11.034c-4.472-9.706-8.943-18.185-9.688-24.518
	c-0.839-7.354-1.863-11.85-0.839-20.635c1.025-8.785,5.685-21.249,5.685-22.271c-0.095-0.919-1.026-5.414-10.622-5.517
	c-9.595-0.103-17.887,2.044-18.818,4.801c-0.932,2.758-2.795,9.092-4.006,15.63c-1.677,9.603-19.191,43.622-29.16,61.499
	c-3.261-6.948-6.056-13.076-6.615-17.981c-0.838-7.354-1.863-11.849-0.838-20.634s5.684-21.25,5.684-22.271
	c-0.094-0.919-1.025-5.415-10.621-5.516c-9.596-0.103-17.888,2.043-18.819,4.801c-0.932,2.759-1.956,9.297-4.006,15.63
	c-1.956,6.333-25.246,63.13-31.303,77.944c-3.074,7.561-5.774,13.589-7.732,17.675c-1.958,4.087-0.094,0.306-0.28,0.715
	c-1.677,3.474-2.608,5.414-2.608,5.414v0.104c-1.305,2.554-2.703,5.007-3.354,5.007c-0.466,0-1.397-6.847,0.187-16.244
	c3.447-19.716,11.832-50.467,11.74-51.59c0-0.51,1.583-5.925-5.405-8.683c-6.801-2.758-9.222,1.84-9.782,1.84
	c-0.558,0-1.024,1.633-1.024,1.633s7.545-34.63-14.441-34.63c-13.788,0-32.794,16.448-42.203,31.465
	c-5.963,3.576-18.633,11.134-32.049,19.204c-5.124,3.065-10.434,6.334-15.465,9.295l-1.025-1.225
	c-26.644-31.158-75.928-53.224-73.879-95.109c0.745-15.221,5.59-55.368,94.656-103.995c72.947-39.84,131.361-28.91,141.514-4.597
	c14.44,34.732-31.21,99.296-107.044,108.591c-28.881,3.576-44.066-8.683-47.887-13.28c-4.005-4.801-4.565-5.005-6.056-4.086
	c-2.421,1.431-0.932,5.721,0,8.275c2.237,6.436,11.552,17.877,27.391,23.599c13.88,5.005,47.792,7.764,88.784-9.604
	c45.93-19.512,81.798-73.655,71.271-118.91c-10.715-46.073-80.401-61.192-146.268-35.551
	c-39.222,15.324-81.704,39.227-112.263,70.589c-36.334,37.186-42.11,69.67-39.688,83.155c8.478,48.116,68.942,79.479,93.165,102.667
	c-1.211,0.714-2.329,1.431-3.355,2.043C107.988,322.302,66.053,346.011,54.5,374c14.699,19.322,23.832,38.063,30.814,43.41
	c31.118,9.503,40.094,9.296,57.331-18.797c17.141-28.093,15.091-64.563,7.172-81.215l-0.279-0.613l9.501-6.129
	c6.15-3.985,12.206-7.663,17.514-10.828c-2.98,8.887-5.124,19.411-6.24,34.733c-1.305,17.979,5.404,41.271,14.253,50.466
	c3.913,3.983,8.572,4.087,11.459,4.087c10.248,0,14.906-9.298,20.03-20.432c6.334-13.588,11.925-29.319,11.925-29.319
	s-6.988,42.6,12.112,42.6c6.987,0,13.975-9.91,17.142-15.018v0.102c0,0,0.188-0.304,0.56-1.02c0.744-1.227,1.118-1.941,1.118-1.941
	v-0.204c2.795-5.312,9.037-17.469,18.354-37.593c12.019-25.948,23.57-58.435,23.57-58.435s1.119,7.97,4.565,21.044
	c2.051,7.766,6.521,16.242,9.969,24.518c-2.795,4.291-4.473,6.743-4.473,6.743l0.094,0.103c-2.236,3.27-4.752,6.743-7.36,10.217
	c-9.502,12.462-20.868,26.661-22.358,30.749c-1.77,4.802-1.397,8.376,2.05,11.237c2.517,2.042,6.987,2.451,11.738,2.042
	c8.57-0.612,14.533-2.962,17.516-4.392c4.658-1.838,9.967-4.597,15.092-8.684c9.316-7.559,14.998-18.284,14.44-32.587
	c-0.278-7.866-2.607-15.631-5.497-22.983c0.839-1.33,1.678-2.659,2.517-4.086c14.719-23.602,26.085-49.547,26.085-49.547
	s1.118,7.968,4.564,21.044c1.77,6.64,5.311,13.893,8.479,21.044c-13.788,12.36-22.452,26.662-25.434,36.061
	c-5.497,17.368-1.211,25.232,6.895,27.073c3.633,0.815,8.851-1.022,12.762-2.86c4.845-1.736,10.715-4.7,16.119-9.094
	c9.316-7.559,18.259-18.08,17.794-32.28c-0.279-6.539-1.863-12.973-4.006-19.103c11.737-5.313,26.923-8.378,46.208-5.823
	c41.459,5.313,49.657,33.71,48.073,45.561c-1.585,11.852-10.248,18.39-13.136,20.432c-2.89,1.94-3.821,2.657-3.54,4.086
	c0.373,2.146,1.676,2.043,4.192,1.635c3.445-0.614,21.8-9.705,22.545-31.566C507.847,300.339,483.531,269.692,440.395,269.997
	L440.395,269.997z M120.659,388.194c-13.695,16.447-32.98,22.677-41.179,17.366c-8.851-5.618-5.405-29.831,11.459-47.3
	c10.248-10.624,23.571-20.432,32.328-26.459c1.956-1.327,4.938-3.269,8.478-5.618c0.559-0.406,0.932-0.612,0.932-0.612
	c0.652-0.409,1.397-0.92,2.142-1.431C141.061,349.067,135.098,370.929,120.659,388.194L120.659,388.194z M220.809,313.518
	c-4.75,12.77-14.812,45.562-20.869,43.723c-5.217-1.533-8.385-26.356-1.025-50.874c3.727-12.362,11.646-27.071,16.304-32.793
	c7.546-9.194,15.745-12.258,17.795-8.478C235.436,269.997,223.79,305.549,220.809,313.518z M303.446,356.83
	c-2.05,1.125-3.912,1.942-4.752,1.33c-0.652-0.409,0.839-1.941,0.839-1.941s10.34-12.157,14.441-17.775
	c2.329-3.27,5.124-7.048,8.104-11.339v1.227C322.077,343.039,309.221,352.848,303.446,356.83z M367.169,340.895
	c-1.491-1.226-1.304-5.006,3.727-16.856c1.957-4.699,6.429-12.563,14.161-20.022c0.932,3.065,1.491,6.028,1.397,8.786
	C386.362,331.189,374.437,338.035,367.169,340.895z"/>
<path fill="#A54278" d="M48.332,256c0-114.514,93.167-207.681,207.681-207.681c59.726,0,113.634,25.354,151.558,65.852
	l18.941-21.183C383.518,48.038,322.981,20,256.013,20c-130.134,0-236,105.866-236,236c0,76.402,36.502,144.428,92.972,187.587
	l18.926-21.163C81.211,384.52,48.332,324.025,48.332,256z"/>
<g id="Camada_2">
</g>
</svg>
