<svg width="300" height="54" viewBox="0 0 300 54" fill="none" xmlns="http://www.w3.org/2000/svg">
<path fill-rule="evenodd" clip-rule="evenodd" d="M25.4579 1.2872C23.9545 1.58267 22.5358 2.13986 21.3522 2.95878L5.20554 14.1304C1.50212 16.6927 1.50212 20.8471 5.20554 23.4094L25.184 37.2322C26.7712 38.3303 29.3445 38.3303 30.9317 37.2322C32.5189 36.134 32.5189 34.3536 30.9317 33.2554L10.9532 19.4327C10.4242 19.0666 10.4242 18.4732 10.9532 18.1071L25.4579 8.07155V1.2872ZM30.6573 8.07122L48.9943 20.7583C50.5815 21.8564 53.1548 21.8564 54.742 20.7583C56.3291 19.6601 56.3291 17.8797 54.742 16.7815L34.7635 2.95878C33.5797 2.13978 32.1609 1.58255 30.6573 1.28711V8.07122Z" fill="#EE3231"/>
<path fill-rule="evenodd" clip-rule="evenodd" d="M45.1625 34.8545C45.6915 35.2206 45.6915 35.8141 45.1625 36.1801L30.6572 46.2161V53.0001C32.1608 52.7047 33.5797 52.1475 34.7635 51.3284L50.9102 40.1568C54.6136 37.5945 54.6136 33.4401 50.9102 30.8778L30.9317 17.0551C29.3445 15.9569 26.7712 15.9569 25.184 17.0551C23.5968 18.1532 23.5968 19.9336 25.184 21.0318L45.1625 34.8545ZM25.4578 53C23.9544 52.7045 22.5358 52.1473 21.3522 51.3284L1.37373 37.5057C-0.213445 36.4075 -0.213445 34.6271 1.37373 33.529C2.96091 32.4308 5.53423 32.4308 7.12141 33.529L25.4578 46.2156V53Z" fill="#EE3231"/>
<path fill-rule="evenodd" clip-rule="evenodd" d="M137.227 20.8771C137.241 20.5165 137.307 19.9027 137.564 19.677C137.826 19.4472 138.954 18.5636 140.069 17.7823C140.075 17.7791 140.084 17.7741 140.095 17.7678C140.295 17.6559 141.248 17.1219 141.209 18.445C141.207 18.4913 141.215 18.5213 141.231 18.5378V50.0926C141.231 50.7751 140.89 51.1164 140.207 51.1164H138.251C137.568 51.1164 137.227 50.7751 137.227 50.0926V20.8771ZM67.8801 46.7481C67.5009 47.2941 67.7132 47.9312 68.5171 48.6592C69.412 49.4783 70.7619 50.2063 72.5669 50.8434C74.3718 51.4804 76.647 51.7989 79.3924 51.7989C81.6827 51.7989 83.5862 51.5183 85.103 50.9571C86.6198 50.3959 87.9318 49.3949 89.039 47.9539C90.1463 46.513 90.6999 44.7156 90.6999 42.5618C90.6999 41.3787 90.5255 40.317 90.1766 39.3766C89.8429 38.421 89.3651 37.5413 88.7433 36.7374C88.1366 35.9183 87.1355 35.1372 85.7401 34.394C84.2384 33.5901 82.479 32.9151 80.4617 32.3691C78.4595 31.8079 76.9807 31.3225 76.0251 30.913C75.3122 30.6096 74.7055 30.1774 74.205 29.6162C73.7045 29.055 73.3935 28.5089 73.2722 27.978C73.1508 27.432 73.0902 26.8405 73.0902 26.2034C73.0902 25.1872 73.3556 24.2923 73.8865 23.5187C74.4173 22.7452 75.1454 22.1991 76.0706 21.8806C76.9959 21.5469 78.1562 21.3801 79.5516 21.3801C80.6437 21.3801 81.7434 21.6228 82.8506 22.1081C83.973 22.5783 84.921 23.0865 85.6945 23.6325C86.7108 24.3454 87.3933 24.4515 87.7422 23.951L88.9025 22.2901C89.3272 21.6683 89.1452 21.0767 88.3565 20.5155C87.2341 19.7116 85.96 19.0594 84.5342 18.5589C83.1085 18.0584 81.4324 17.8081 79.5061 17.8081C77.8225 17.8081 76.1616 18.0356 74.5235 18.4906C72.9006 18.9457 71.5279 19.8709 70.4055 21.2663C69.2831 22.6618 68.7219 24.3226 68.7219 26.2489C68.7219 27.5078 68.8508 28.6303 69.1086 29.6162C69.3817 30.5869 69.9201 31.5349 70.724 32.4601C71.5431 33.3853 72.6351 34.1741 74.0002 34.8263C75.3805 35.4785 76.9883 36.0852 78.8236 36.6464C80.674 37.2076 82.0619 37.7006 82.9871 38.1252C83.5483 38.3831 84.0868 38.7395 84.6025 39.1946C85.1182 39.6496 85.4898 40.2184 85.7173 40.9009C85.96 41.5683 86.0813 42.2964 86.0813 43.0851C86.0813 44.1772 85.7931 45.11 85.2168 45.8835C84.6556 46.6419 83.9048 47.2259 82.9644 47.6354C82.024 48.0449 80.8712 48.2497 79.5061 48.2497C77.6557 48.2497 76.0782 47.9615 74.7738 47.3851C73.4845 46.8088 72.2408 46.0731 71.0425 45.1782C70.1325 44.4957 69.4727 44.4502 69.0631 45.0417L67.8801 46.7481ZM97.3434 30.1849C95.4626 32.4146 94.5222 35.4102 94.5222 39.1718C94.5222 42.9334 95.4171 45.929 97.2068 48.1587C99.0118 50.3883 101.81 51.5032 105.602 51.5032C108.514 51.5032 110.645 51.0178 111.995 50.0471C113.36 49.0763 114.187 48.371 114.475 47.9312C114.824 47.4003 114.824 46.9832 114.475 46.6798L113.133 45.5195C112.678 45.1252 112.208 45.2465 111.722 45.8835C111.282 46.4599 110.592 47.0439 109.652 47.6354C108.712 48.2269 107.362 48.5227 105.602 48.5227C103.934 48.5227 102.44 47.9539 101.12 46.8164C99.8005 45.6636 99.0118 43.6235 98.754 40.6962H114.612C115.234 40.6962 115.545 40.3549 115.545 39.6724C115.545 35.1979 114.581 31.9444 112.655 29.9119C110.744 27.8643 108.332 26.8405 105.42 26.8405C101.916 26.8405 99.2242 27.9553 97.3434 30.1849ZM111.518 37.7385H98.6629C98.8905 34.7656 99.6185 32.6952 100.847 31.5273C102.076 30.3442 103.57 29.7527 105.329 29.7527C107.331 29.7527 108.848 30.5566 109.879 32.1643C110.911 33.7569 111.457 35.615 111.518 37.7385ZM121.824 51.1164C121.142 51.1164 120.8 50.7751 120.8 50.0926V28.2511C120.8 27.5685 121.142 27.2272 121.824 27.2272H123.735C124.418 27.2272 124.759 27.5685 124.759 28.2511V30.9812H124.85C125.578 29.6162 126.435 28.5848 127.421 27.887C128.407 27.1893 129.635 26.8405 131.107 26.8405C132.077 26.8405 132.76 26.9239 133.154 27.0907C133.503 27.2272 133.632 27.4548 133.541 27.7733L133.018 29.6389C132.942 29.9119 132.745 30.0181 132.426 29.9574C131.895 29.8513 131.395 29.7982 130.925 29.7982C129.15 29.7982 127.686 30.6021 126.534 32.2098C125.381 33.8024 124.805 35.979 124.805 38.7395V50.0926C124.805 50.7751 124.463 51.1164 123.781 51.1164H121.824ZM148.716 51.1164C148.034 51.1164 147.693 50.7751 147.693 50.0926V28.2511C147.693 27.5685 148.034 27.2272 148.716 27.2272H150.673C151.356 27.2272 151.697 27.5685 151.697 28.2511V50.0926C151.697 50.7751 151.356 51.1164 150.673 51.1164H148.716ZM156.952 27.2272C156.285 27.2272 156.08 27.5989 156.338 28.3421L163.801 49.7286C164.119 50.6538 164.529 51.1164 165.029 51.1164H168.033C168.533 51.1164 168.943 50.6538 169.261 49.7286L176.724 28.3421C176.981 27.5989 176.777 27.2272 176.109 27.2272H173.629C173.144 27.2272 172.803 27.523 172.606 28.1146L167.782 43.1306C167.388 44.3592 167.115 45.2086 166.963 45.6788C166.827 46.1338 166.698 46.7026 166.576 47.3851H166.485C166.364 46.7026 166.228 46.1338 166.076 45.6788C165.939 45.2086 165.674 44.3592 165.28 43.1306L160.456 28.1146C160.259 27.523 159.918 27.2272 159.432 27.2272H156.952Z" fill="#EE3231"/>
<rect x="147.711" y="17.4329" width="3.98525" height="3.98525" rx="1.31392" fill="#EE3231"/>
</svg>
